<svg version="1.2" baseProfile="tiny-ps" xmlns="http://www.w3.org/2000/svg" viewBox="0 0 408 81" width="390" height="71">
	<title>agaluminium logo (1)-svg-svg</title>
	<style>
		tspan { white-space:pre }
		.shp0 { fill: #ab0033 }
		.shp1 { fill: #505257 }
	</style>
	<path id="Layer" fill-rule="evenodd" class="shp0" d="M24.18 72.63L49.9 5.16L69.27 5.16L94.99 72.63L75.47 72.63L70.33 59.14L48.84 59.14L43.7 72.63L24.18 72.63ZM59.58 30.95L53.98 45.64L65.18 45.64L59.58 30.95Z" />
	<path id="Layer" class="shp1" d="M125.5 5.16L89.24 5.16C85.02 7.42 81.18 10.31 78.08 13.91L87.03 37.39C87.8 26.92 96.54 18.66 107.21 18.66C114.21 18.66 120.37 22.21 124 27.61L139.03 17.47C135.58 12.36 130.94 8.12 125.5 5.16Z" />
	<path id="Layer" class="shp1" d="M145.59 38.9C145.59 36.6 145.39 34.34 145 32.15L107.22 32.15L107.22 45.64L126.3 45.64C123.52 53.5 116.03 59.13 107.22 59.13C101.76 59.13 96.8 56.96 93.16 53.44L100.47 72.62L125.14 72.62C137.25 66.18 145.59 53.58 145.59 38.9Z" />
	<path id="Layer" fill-rule="evenodd" class="shp1" d="M195.82 14.77C197.29 16.23 198.03 18.15 198.03 20.57C198.03 23.05 197.27 24.97 195.76 26.41C194.26 27.81 192.3 28.51 189.86 28.51C187.45 28.51 185.54 27.77 184.1 26.34C182.67 24.91 181.98 22.99 181.98 20.58C181.98 19.39 182.15 18.31 182.54 17.33L180.31 17.33C177.58 17.33 176.22 19.11 176.22 22.64L176.22 34.21L171.4 34.21L171.4 21.87C171.4 18.86 172.27 16.52 173.98 14.88C175.55 13.34 177.58 12.57 180.09 12.57L190.04 12.57C192.46 12.57 194.41 13.31 195.82 14.77ZM193.23 20.44C193.23 19.36 192.98 18.45 192.46 17.75C191.87 16.94 191.06 16.56 190.02 16.56C188.93 16.56 188.14 16.98 187.54 17.81C187.02 18.55 186.77 19.49 186.77 20.58C186.77 21.66 187.01 22.53 187.46 23.27C188.02 24.14 188.79 24.56 189.77 24.56L190.12 24.56C192.17 24.56 193.22 23.19 193.23 20.44Z" />
	<path id="Layer" class="shp1" d="M311.13 30.15L315.47 30.15L315.47 34.21L311.13 34.21L311.13 30.15Z" />
	<path id="Layer" class="shp1" d="M304.57 30.15L308.9 30.15L308.9 34.21L304.57 34.21L304.57 30.15Z" />
	<path id="Layer" class="shp1" d="M333.57 -105.48L337.93 -105.48L337.93 -101.46L333.57 -101.46L333.57 -105.48Z" />
	<path id="Layer" fill-rule="evenodd" class="shp1" d="M363.5 20.29L363.5 5.89L368.38 5.89L368.38 21.65C368.38 23.5 367.86 25.05 366.85 26.27C365.69 27.7 364.09 28.4 362.03 28.4L353.66 28.4C352.23 30.4 350.03 31.41 347.13 31.41C344.16 31.41 341.97 30.39 340.5 28.4L217.1 28.4C216.54 32.24 213.89 34.16 209.14 34.16L208.62 34.16L208.62 30.24L209.04 30.24C210.92 30.24 212.04 29.54 212.43 28.18C212.04 28.31 211.07 28.39 209.43 28.39C204.86 28.39 201.51 25.07 201.51 20.42C201.51 15.7 204.78 12.52 209.43 12.52C213.9 12.52 217.18 15.88 217.18 20.52L217.18 23.7L308.6 23.7C310.24 23.7 311.04 22.59 311.04 20.35L311.04 12.55L315.96 12.55L315.96 20.17C315.96 21.47 315.79 22.62 315.4 23.71L323.56 23.71C325.21 23.71 326.04 22.6 326.04 20.36L326.04 12.56L330.96 12.56L330.96 20.18C330.96 21.48 330.75 22.63 330.36 23.72L339.06 23.72C339.06 18.69 341.92 15.54 346.98 15.54C352.07 15.54 355.14 18.58 355.14 23.72L361 23.72C362.64 23.72 363.48 22.56 363.48 20.29L363.5 20.29ZM212.27 20.32C212.27 18.26 211.05 16.93 209.27 16.93C207.43 16.93 206.44 18.36 206.44 20.22C206.44 22.21 207.63 23.72 209.45 23.72L212.27 23.72L212.27 20.32ZM350.29 23.62C350.29 20.85 349.23 19.46 347.18 19.46L346.83 19.46C345.05 19.46 343.86 21.13 343.86 23.4C343.86 25.74 345.05 27.42 347.11 27.42C349.11 27.42 350.29 25.96 350.29 23.62Z" />
	<path id="Layer" class="shp1" d="M372.09 5.85L376.98 5.85L376.98 28.4L372.09 28.4L372.09 5.85Z" />
	<path id="Layer" fill-rule="evenodd" class="shp1" d="M171.47 46.24L177.41 46.24L187.25 72.57L181.24 72.57L179.25 66.7L169.4 66.7L167.33 72.57L161.47 72.57L171.47 46.24ZM170.92 62.39L177.74 62.39L174.41 52.73L174.34 52.73L170.92 62.39Z" />
	<path id="Layer" class="shp1" d="M189.54 46.24L195.33 46.24L195.33 67.7L208.16 67.7L208.16 72.57L189.54 72.57L189.54 46.24Z" />
	<path id="Layer" class="shp1" d="M233.76 62.61C233.76 69.73 229.56 73.2 222.52 73.2C215.44 73.2 211.31 69.77 211.31 62.61L211.31 46.24L217.1 46.24L217.1 62.61C217.1 65.49 217.83 68.33 222.52 68.33C226.64 68.33 227.97 66.53 227.97 62.61L227.97 46.24L233.76 46.24L233.76 62.61L233.76 62.61Z" />
	<path id="Layer" class="shp1" d="M238.74 46.24L246.9 46.24L253.06 64.34L253.13 64.34L258.96 46.24L267.11 46.24L267.11 72.57L261.68 72.57L261.68 53.9L261.62 53.9L255.16 72.57L250.7 72.57L244.24 54.09L244.17 54.09L244.17 72.57L238.74 72.57L238.74 46.24Z" />
	<path id="Layer" class="shp1" d="M272.2 46.24L277.99 46.24L277.99 72.57L272.2 72.57L272.2 46.24Z" />
	<path id="Layer" class="shp1" d="M283.08 46.24L288.83 46.24L299.83 63.9L299.9 63.9L299.9 46.24L305.32 46.24L305.32 72.57L299.53 72.57L288.58 54.94L288.5 54.94L288.5 72.57L283.08 72.57L283.08 46.24Z" />
	<path id="Layer" class="shp1" d="M310.41 46.24L316.2 46.24L316.2 72.57L310.41 72.57L310.41 46.24Z" />
	<path id="Layer" class="shp1" d="M343.64 62.61C343.64 69.73 339.44 73.2 332.4 73.2C325.32 73.2 321.19 69.77 321.19 62.61L321.19 46.24L326.98 46.24L326.98 62.61C326.98 65.49 327.71 68.33 332.4 68.33C336.52 68.33 337.85 66.53 337.85 62.61L337.85 46.24L343.64 46.24L343.64 62.61L343.64 62.61Z" />
	<path id="Layer" class="shp1" d="M348.62 46.24L356.78 46.24L362.94 64.34L363.01 64.34L368.84 46.24L376.99 46.24L376.99 72.57L371.56 72.57L371.56 53.9L371.5 53.9L365.04 72.57L360.58 72.57L354.12 54.09L354.05 54.09L354.05 72.57L348.62 72.57L348.62 46.24Z" />
</svg>
