<svg xmlns="http://www.w3.org/2000/svg" width="240" height="42.03" viewBox="0 0 240 42.03">
  <g id="Group_359" data-name="Group 359" transform="translate(-60.381 -153)">
    <g id="Group_354" data-name="Group 354" transform="translate(60.381 153)">
      <path id="Path_352" data-name="Path 352" d="M60.381,194.611,76.241,153H88.189l15.86,41.611H92.013l-3.172-8.323H75.589l-3.172,8.323Zm21.834-25.706-3.454,9.062h6.908Z" transform="translate(-60.381 -153)" fill="#970026"/>
      <path id="Path_353" data-name="Path 353" d="M144.664,153H122.3a23.719,23.719,0,0,0-6.881,5.4l5.519,14.478a12.477,12.477,0,0,1,22.8-6.034l9.269-6.252A23.8,23.8,0,0,0,144.664,153Z" transform="translate(-82.174 -153)" fill="#505257"/>
      <path id="Path_354" data-name="Path 354" d="M163.143,184.716a23.857,23.857,0,0,0-.364-4.161h-23.3v8.323h11.77a12.48,12.48,0,0,1-20.44,4.816l4.509,11.828h15.217A23.568,23.568,0,0,0,163.143,184.716Z" transform="translate(-88.267 -163.911)" fill="#505257"/>
    </g>
    <g id="Group_358" data-name="Group 358" transform="translate(144.703 153)">
      <g id="Group_356" data-name="Group 356" transform="translate(0 25.084)">
        <g id="Group_355" data-name="Group 355">
          <path id="Path_355" data-name="Path 355" d="M199.977,195.164h12.1v2.99h-8.54v3.468h7.839v2.764h-7.839v3.966h8.721v2.991H199.977Z" transform="translate(-199.977 -194.779)" fill="#505257"/>
          <path id="Path_356" data-name="Path 356" d="M224.287,195.164h3.535l6.753,10.852h.044V195.164h3.331v16.178h-3.558l-6.73-10.829h-.043v10.829h-3.331Z" transform="translate(-209.603 -194.779)" fill="#505257"/>
          <path id="Path_357" data-name="Path 357" d="M263.319,209.255a5.477,5.477,0,0,1-4.441,2.219c-5.008,0-7.952-3.738-7.952-8.406,0-4.8,2.944-8.541,7.952-8.541,3.308,0,6.435,2.039,6.82,5.71h-3.4a3.315,3.315,0,0,0-3.421-2.719c-3.194,0-4.4,2.719-4.4,5.55,0,2.7,1.2,5.416,4.4,5.416A3.5,3.5,0,0,0,262.731,205h-3.581v-2.652h6.8v8.747h-2.266Z" transform="translate(-220.151 -194.527)" fill="#505257"/>
          <path id="Path_358" data-name="Path 358" d="M280.558,195.164h3.558v16.178h-3.558Z" transform="translate(-231.883 -194.779)" fill="#505257"/>
          <path id="Path_359" data-name="Path 359" d="M291.627,195.164h3.535l6.753,10.852h.044V195.164h3.331v16.178h-3.558L295,200.513h-.044v10.829h-3.331Z" transform="translate(-236.266 -194.779)" fill="#505257"/>
          <path id="Path_360" data-name="Path 360" d="M319.427,195.164h12.1v2.99h-8.541v3.468h7.839v2.764h-7.839v3.966h8.721v2.991h-12.28Z" transform="translate(-247.274 -194.779)" fill="#505257"/>
          <path id="Path_361" data-name="Path 361" d="M343.738,195.164h12.1v2.99H347.3v3.468h7.839v2.764H347.3v3.966h8.721v2.991H343.738Z" transform="translate(-256.9 -194.779)" fill="#505257"/>
          <path id="Path_362" data-name="Path 362" d="M368.048,195.164h8.724a4.445,4.445,0,0,1,4.734,4.464,3.983,3.983,0,0,1-2.559,4.056v.044c1.744.454,2.242,2.155,2.356,3.786.067,1.019.047,2.924.678,3.829h-3.555a17.834,17.834,0,0,1-.568-3.876c-.248-1.7-.905-2.446-2.7-2.446h-3.555v6.322h-3.558Zm3.558,7.32h3.9c1.587,0,2.446-.681,2.446-2.312,0-1.564-.859-2.245-2.446-2.245h-3.9Z" transform="translate(-266.526 -194.779)" fill="#505257"/>
          <path id="Path_363" data-name="Path 363" d="M395.135,195.164h3.558v16.178h-3.558Z" transform="translate(-277.251 -194.779)" fill="#505257"/>
          <path id="Path_364" data-name="Path 364" d="M406.2,195.164h3.535l6.75,10.852h.047V195.164h3.331v16.178H416.3l-6.729-10.829h-.043v10.829H406.2Z" transform="translate(-281.632 -194.779)" fill="#505257"/>
          <path id="Path_365" data-name="Path 365" d="M445.231,209.255a5.477,5.477,0,0,1-4.443,2.219c-5,0-7.949-3.738-7.949-8.406,0-4.8,2.947-8.541,7.949-8.541,3.308,0,6.436,2.039,6.826,5.71h-3.4a3.318,3.318,0,0,0-3.424-2.719c-3.191,0-4.391,2.719-4.391,5.55,0,2.7,1.2,5.416,4.391,5.416A3.505,3.505,0,0,0,444.642,205h-3.581v-2.652h6.8v8.747h-2.265Z" transform="translate(-292.179 -194.527)" fill="#505257"/>
        </g>
      </g>
      <g id="Group_357" data-name="Group 357" transform="translate(0 0)">
        <rect id="Rectangle_202" data-name="Rectangle 202" width="2.221" height="2.076" transform="translate(5.297)" fill="#505257"/>
        <rect id="Rectangle_203" data-name="Rectangle 203" width="2.239" height="2.058" transform="translate(15.725 3.347)" fill="#505257"/>
        <path id="Path_366" data-name="Path 366" d="M215.594,165.918c0,1.163-.428,1.753-1.271,1.753h-1.4c-2.024,0-3.024-1.073-3.024-3.381h-4.01a1.678,1.678,0,0,1-1-1.773c0-1.111.625-1.9,1.5-1.9a1.342,1.342,0,0,1,1.378,1.041l2-.933a3.53,3.53,0,0,0-3.346-2.184,3.909,3.909,0,0,0-3.9,4.082,4.688,4.688,0,0,0,.431,1.917,4.039,4.039,0,0,0-2.972,4.117c0,2.719,1.753,4.385,5.1,4.385h3.291v-2.417h-3.436c-1.7,0-2.541-.663-2.541-1.968,0-1.378.77-1.951,2.541-1.951h2.989a4.764,4.764,0,0,0,4.807,3.336v.028h2.131a2.968,2.968,0,0,0,2.451-1.093,3.57,3.57,0,0,0,.788-2.361V161.96h-2.506Z" transform="translate(-199.977 -155.194)" fill="#505257"/>
        <rect id="Rectangle_204" data-name="Rectangle 204" width="2.236" height="2.058" transform="translate(74.581 3.347)" fill="#505257"/>
        <rect id="Rectangle_205" data-name="Rectangle 205" width="2.222" height="2.076" transform="translate(127.962 15.771)" fill="#505257"/>
        <rect id="Rectangle_206" data-name="Rectangle 206" width="2.236" height="2.058" transform="translate(139.482 3.347)" fill="#505257"/>
        <path id="Path_367" data-name="Path 367" d="M361.049,168.029c0,1.163-.428,1.753-1.271,1.753h-4.155a5.319,5.319,0,0,0,.3-1.808v-3.9H353.4v3.992c0,1.145-.431,1.718-1.271,1.718h-3.105c-.306-2.648-1.433-4.422-3.347-5.332a6.511,6.511,0,0,0-2.794-.576,5.875,5.875,0,0,0-4.42,1.9c.59.805,1,1.361,1.25,1.7a4.462,4.462,0,0,1,2.992-1.288,3.569,3.569,0,0,1,2.757,1.163,3.813,3.813,0,0,1,1.02,2.433H298.476a5.365,5.365,0,0,0,.285-1.808v-3.9h-2.524v3.992c0,1.145-.41,1.718-1.253,1.718h-4.262a5.3,5.3,0,0,0,.305-1.808v-3.9H288.5v3.992c0,1.145-.431,1.718-1.271,1.718h-4.175a5.38,5.38,0,0,0,.284-1.808v-3.9h-2.524v3.992c0,1.145-.41,1.718-1.253,1.718H240.419v-5.71H237.9v6.676q0,2.364-2.472,2.364v2.024c2.847,0,4.458-.986,4.867-2.954H360.316a2.968,2.968,0,0,0,2.451-1.093,3.57,3.57,0,0,0,.788-2.361v-4.655h-2.506Z" transform="translate(-214.012 -157.306)" fill="#505257"/>
        <rect id="Rectangle_207" data-name="Rectangle 207" width="2.506" height="11.547" transform="translate(153.171 3.329)" fill="#505257"/>
        <rect id="Rectangle_208" data-name="Rectangle 208" width="2.221" height="2.076" transform="translate(79.163 15.771)" fill="#505257"/>
        <rect id="Rectangle_209" data-name="Rectangle 209" width="2.219" height="2.076" transform="translate(82.53 15.771)" fill="#505257"/>
        <rect id="Rectangle_210" data-name="Rectangle 210" width="2.218" height="2.076" transform="translate(67.111 15.771)" fill="#505257"/>
        <rect id="Rectangle_211" data-name="Rectangle 211" width="2.221" height="2.076" transform="translate(63.744 15.771)" fill="#505257"/>
        <rect id="Rectangle_212" data-name="Rectangle 212" width="2.239" height="2.076" transform="translate(147.304 15.771)" fill="#505257"/>
        <rect id="Rectangle_213" data-name="Rectangle 213" width="2.219" height="2.076" transform="translate(143.939 15.771)" fill="#505257"/>
      </g>
    </g>
  </g>
</svg>
