<svg xmlns="http://www.w3.org/2000/svg" width="260" height="43" viewBox="0 0 410.294 82.602">
  <g id="Group_34" data-name="Group 34" transform="translate(-311.797 -383.38)">
    <path id="Path_216" data-name="Path 216" d="M311.8,463.3l31.23-79.921h23.524l31.23,79.921h-23.7l-6.246-15.985H341.741L335.5,463.3Zm42.992-49.375-6.8,17.405h13.6Z" transform="translate(0 0.001)" fill="#970026"/>
    <path id="Path_217" data-name="Path 217" d="M397.685,383.38H353.654a46.588,46.588,0,0,0-13.55,10.37l10.865,27.807a24.336,24.336,0,0,1,24.5-22.192,24.712,24.712,0,0,1,20.391,10.6l18.252-12.007a46.5,46.5,0,0,0-16.431-14.579" transform="translate(37.158)" fill="#505257"/>
    <path id="Path_218" data-name="Path 218" d="M411.687,405.2a44.647,44.647,0,0,0-.719-7.993H365.087v15.985h23.175a24.552,24.552,0,0,1-23.175,15.985,24.807,24.807,0,0,1-17.07-6.735l8.876,22.717h29.963c14.706-7.643,24.831-22.569,24.831-39.961" transform="translate(47.545 18.145)" fill="#505257"/>
    <path id="Path_219" data-name="Path 219" d="M382.81,406.455h25.849v5.28H390.407v6.119h16.751v4.889H390.407v6.989h18.64v5.282H382.81Z" transform="translate(93.217 30.29)" fill="#505257"/>
    <path id="Path_220" data-name="Path 220" d="M396.36,406.455h7.6v23.277H420.8v5.282H396.36Z" transform="translate(111.002 30.29)" fill="#505257"/>
    <path id="Path_221" data-name="Path 221" d="M408.761,406.455H434.6v5.28H416.359v6.119H433.1v4.889H416.359v6.989h18.626v5.282H408.761Z" transform="translate(127.282 30.29)" fill="#505257"/>
    <path id="Path_222" data-name="Path 222" d="M440.487,435.014h-8.555L420.7,406.455h7.847l7.7,20.088h.1l7.791-20.088h7.833Z" transform="translate(142.947 30.29)" fill="#505257"/>
    <path id="Path_223" data-name="Path 223" d="M446.053,406.455h7.794l12.916,28.559h-7.888l-2.611-6.358H443.345l-2.722,6.358h-7.694Zm-.735,17.528h8.959L449.916,413.5h-.1Z" transform="translate(159.005 30.29)" fill="#505257"/>
    <path id="Path_224" data-name="Path 224" d="M456.485,411.735H446.124v-5.28h28.307v5.28H464.082v23.277h-7.6Z" transform="translate(176.326 30.291)" fill="#505257"/>
    <path id="Path_225" data-name="Path 225" d="M476.414,406.163c10.7,0,16.987,6.6,16.987,15.083,0,8.242-6.29,14.829-16.987,14.829s-16.987-6.586-16.987-14.829c0-8.483,6.29-15.083,16.987-15.083m0,24.644c6.82,0,9.389-4.808,9.389-9.561,0-5-2.569-9.8-9.389-9.8s-9.389,4.8-9.389,9.8c0,4.753,2.555,9.561,9.389,9.561" transform="translate(193.789 29.906)" fill="#505257"/>
    <path id="Path_226" data-name="Path 226" d="M476.339,406.455h18.64c6.2,0,10.111,3.571,10.111,7.886,0,3.363-1.654,5.876-5.472,7.162v.081c3.721.791,4.792,3.8,5.042,6.67.139,1.8.1,5.164,1.443,6.76h-7.6c-.916-1.8-.819-4.556-1.207-6.841-.53-2.995-1.931-4.315-5.766-4.315h-7.6v11.156h-7.6Zm7.6,12.925h8.335c3.374,0,5.222-1.2,5.222-4.086,0-2.754-1.848-3.95-5.222-3.95h-8.335Z" transform="translate(215.988 30.29)" fill="#505257"/>
    <path id="Path_227" data-name="Path 227" d="M390.182,405.354q0,5.821-7.373,5.821v4.981c5.134,0,8.874-.837,11.17-2.551,2.516-1.813,3.742-4.729,3.742-8.781V388.9h-7.539Z" transform="translate(93.215 7.239)" fill="#505257"/>
    <rect id="Rectangle_103" data-name="Rectangle 103" width="6.635" height="5.074" transform="translate(567.645 387.707)" fill="#505257"/>
    <rect id="Rectangle_104" data-name="Rectangle 104" width="6.621" height="5.074" transform="translate(577.702 387.707)" fill="#505257"/>
    <rect id="Rectangle_105" data-name="Rectangle 105" width="6.621" height="5.12" transform="translate(600.665 418.32)" fill="#505257"/>
    <rect id="Rectangle_106" data-name="Rectangle 106" width="6.635" height="5.12" transform="translate(590.609 418.32)" fill="#505257"/>
    <rect id="Rectangle_107" data-name="Rectangle 107" width="6.635" height="5.074" transform="translate(639.388 383.38)" fill="#505257"/>
    <rect id="Rectangle_108" data-name="Rectangle 108" width="6.635" height="5.12" transform="translate(668.32 418.32)" fill="#505257"/>
    <rect id="Rectangle_109" data-name="Rectangle 109" width="6.635" height="5.12" transform="translate(678.375 418.32)" fill="#505257"/>
    <path id="Path_228" data-name="Path 228" d="M595.531,403.422c0,2.872-1.279,4.327-3.8,4.327h-11.95a11.077,11.077,0,0,0,.863-4.452v-9.621H573.11v9.838c0,2.824-1.24,4.234-3.756,4.234H551.063a16.4,16.4,0,0,1-4.383-.356,9.782,9.782,0,0,0,3.464-7.229,9.222,9.222,0,0,0-.641-3.353c-1.654-4.281-6.091-6.968-11.808-6.968-5.62,0-10.111,2.687-11.82,6.968a9.527,9.527,0,0,0-.643,3.353,9.807,9.807,0,0,0,3.478,7.229,15.8,15.8,0,0,1-4.383.356H502.076a11.113,11.113,0,0,0,.849-4.452v-9.621h-7.539v9.838c0,2.824-1.223,4.234-3.742,4.234H478.889a11.093,11.093,0,0,0,.9-4.452v-9.621h-7.525v9.838c0,2.824-1.293,4.234-3.8,4.234H415.881v-4.017c0-5.865-5.021-10.1-11.864-10.1-7.121,0-12.144,4.015-12.144,9.972,0,5.867,5.134,10.055,12.144,10.055a21.623,21.623,0,0,0,4.588-.264c-.583,1.723-2.294,2.606-5.187,2.606h-.638v4.938h.8q10.913,0,12.185-7.28H524.328a47.661,47.661,0,0,0,13.367-1.628,47.674,47.674,0,0,0,13.367,1.628H593.29a9.854,9.854,0,0,0,7.373-2.685,7.889,7.889,0,0,0,2.35-5.833V385.251h-7.482ZM408.4,407.749h-4.339a4.316,4.316,0,0,1-4.591-4.408,3.968,3.968,0,0,1,4.325-4.153c2.729,0,4.6,1.688,4.6,4.281ZM540.311,404.8a21.656,21.656,0,0,1-2.616,1.318,17.809,17.809,0,0,1-2.572-1.318,5.638,5.638,0,0,1-3.1-5.074,5.054,5.054,0,0,1,1.392-3.536,6.136,6.136,0,0,1,4.283-1.538c3.575,0,5.717,2.285,5.717,5.074a5.636,5.636,0,0,1-3.1,5.074" transform="translate(105.113 2.456)" fill="#505257"/>
    <rect id="Rectangle_110" data-name="Rectangle 110" width="7.484" height="28.455" transform="translate(714.607 387.661)" fill="#505257"/>
  </g>
</svg>
