<svg xmlns="http://www.w3.org/2000/svg" width="305.5" height="60.74" viewBox="0 0 305.5 80.74">
  <g id="Group_365" data-name="Group 365" transform="translate(-105.428 -140.866)">
    <g id="Group_360" data-name="Group 360" transform="translate(105.428 140.867)">
      <path id="Path_368" data-name="Path 368" d="M105.428,220.939l30.52-80.072h22.991l30.52,80.072H166.3l-6.1-16.014h-25.5l-6.1,16.014Zm42.016-49.467L140.8,188.91h13.293Z" transform="translate(-105.428 -140.867)" fill="#970026"/>
      <path id="Path_369" data-name="Path 369" d="M223.717,140.867H180.687a45.652,45.652,0,0,0-13.241,10.389l10.619,27.859A24.01,24.01,0,0,1,221.939,167.5l17.836-12.03A45.805,45.805,0,0,0,223.717,140.867Z" transform="translate(-103.469 -140.867)" fill="#505257"/>
      <path id="Path_370" data-name="Path 370" d="M247.006,179.922a45.82,45.82,0,0,0-.7-8.007H201.464v16.014h22.65a24.014,24.014,0,0,1-39.331,9.268l8.675,22.761h29.283A45.353,45.353,0,0,0,247.006,179.922Z" transform="translate(-102.921 -139.886)" fill="#505257"/>
    </g>
    <g id="Group_364" data-name="Group 364" transform="translate(268.376 140.866)">
      <g id="Group_362" data-name="Group 362" transform="translate(0.042 51.535)">
        <g id="Group_361" data-name="Group 361">
          <path id="Path_371" data-name="Path 371" d="M263.427,191.464H276c6.948,0,9.643,4.415,9.643,8.943s-2.7,8.943-9.643,8.943h-6.444v10h-6.13Zm6.13,13.123h4.763c2.852,0,5.39-.627,5.39-4.18s-2.538-4.174-5.39-4.174h-4.763Z" transform="translate(-263.427 -190.803)" fill="#505257"/>
          <path id="Path_372" data-name="Path 372" d="M301.184,190.823c8.629,0,13.706,6.444,13.706,14.72,0,8.046-5.077,14.486-13.706,14.486s-13.706-6.439-13.706-14.486C287.478,197.267,292.556,190.823,301.184,190.823Zm0,24.056c5.5,0,7.576-4.691,7.576-9.336,0-4.88-2.074-9.564-7.576-9.564s-7.575,4.683-7.575,9.564C293.609,210.188,295.676,214.879,301.184,214.879Z" transform="translate(-262.667 -190.823)" fill="#505257"/>
          <path id="Path_373" data-name="Path 373" d="M344.714,219.347h-6.1l-4.724-18.979h-.078l-4.645,18.979h-6.208l-7.38-27.883h6.131l4.409,18.979h.078l4.848-18.979h5.738l4.763,19.214h.078l4.567-19.214h6.017Z" transform="translate(-261.779 -190.803)" fill="#505257"/>
          <path id="Path_374" data-name="Path 374" d="M353.784,191.464h20.85v5.155h-14.72v5.974h13.51v4.768h-13.51v6.83h15.033v5.156H353.784Z" transform="translate(-260.572 -190.803)" fill="#505257"/>
          <path id="Path_375" data-name="Path 375" d="M378.292,191.464h15.033c5,0,8.158,3.48,8.158,7.694,0,3.284-1.328,5.744-4.409,6.993v.078c3,.779,3.866,3.71,4.062,6.517.111,1.76.072,5.037,1.171,6.6h-6.13c-.746-1.76-.667-4.449-.981-6.68-.426-2.925-1.558-4.214-4.645-4.214h-6.13v10.894h-6.13Zm6.13,12.613h6.719c2.729,0,4.213-1.171,4.213-3.984,0-2.689-1.484-3.86-4.213-3.86h-6.719Z" transform="translate(-259.798 -190.803)" fill="#505257"/>
        </g>
      </g>
      <g id="Group_363" data-name="Group 363">
        <path id="Path_376" data-name="Path 376" d="M269.09,169.21q0,5.455-5.7,5.457v4.668c3.968,0,6.858-.785,8.641-2.4,1.938-1.692,2.891-4.42,2.891-8.22V153.8H269.09Z" transform="translate(-263.386 -140.458)" fill="#505257"/>
        <path id="Path_377" data-name="Path 377" d="M291.231,153.714c-5.413,0-9.3,3.8-9.3,9.464,0,5.542,3.968,9.587,9.3,9.587,1.939,0,3.307-.616,4.091-1.9,0,2.23-2.276,3.844-4.589,3.844h-.37v4.629h.578c6.321,0,9.464-2.56,9.464-7.649v-8.427C300.4,157.8,296.56,153.714,291.231,153.714Zm.079,13.683c-2.27,0-3.592-1.945-3.592-4.259,0-2.437,1.362-4.174,3.39-4.174,2.062,0,3.507,1.776,3.507,4.3S293.378,167.4,291.31,167.4Z" transform="translate(-262.8 -140.46)" fill="#505257"/>
        <path id="Path_378" data-name="Path 378" d="M398.754,154.2v9.134c0,2.684-.992,4.051-2.931,4.051H318.31c-4.258,0-4.96-1.491-4.96-4.3V140.866h-5.788V166.1c0,4.258,2.561,6.82,6.987,6.82h82.512a6.865,6.865,0,0,0,5.659-2.522,8.258,8.258,0,0,0,1.822-5.452V154.2Z" transform="translate(-261.99 -140.866)" fill="#505257"/>
        <rect id="Rectangle_214" data-name="Rectangle 214" width="5.127" height="4.791" transform="translate(137.094 34.126)" fill="#505257"/>
      </g>
    </g>
  </g>
</svg>
