<svg xmlns="http://www.w3.org/2000/svg" width="276" height="43.044" viewBox="0 0 276 40.044">
  <g id="Group_353" data-name="Group 353" transform="translate(-26.338 -150)">
    <g id="Group_348" data-name="Group 348" transform="translate(26.338 150)">
      <path id="Path_331" data-name="Path 331" d="M26.338,189.644,41.448,150H52.831l15.11,39.644H56.475l-3.022-7.929H40.827L37.8,189.644Zm20.8-24.491-3.291,8.634h6.582Z" transform="translate(-26.338 -150)" fill="#970026"/>
      <path id="Path_332" data-name="Path 332" d="M104.8,150H83.493a22.6,22.6,0,0,0-6.556,5.143l5.258,13.794a11.887,11.887,0,0,1,21.722-5.749l8.831-5.957A22.674,22.674,0,0,0,104.8,150Z" transform="translate(-45.262 -150)" fill="#505257"/>
      <path id="Path_333" data-name="Path 333" d="M121.889,179.3a22.726,22.726,0,0,0-.347-3.964h-22.2v7.929h11.214a11.89,11.89,0,0,1-19.473,4.589l4.295,11.269h14.5A22.453,22.453,0,0,0,121.889,179.3Z" transform="translate(-50.553 -159.474)" fill="#505257"/>
    </g>
    <g id="Group_352" data-name="Group 352" transform="translate(106.621 150.012)">
      <g id="Group_350" data-name="Group 350" transform="translate(0.053 23.886)">
        <g id="Group_349" data-name="Group 349">
          <path id="Path_334" data-name="Path 334" d="M154.672,188.762h6.949c3.845,0,5.332,2.438,5.332,4.943s-1.487,4.943-5.332,4.943h-3.559v5.526h-3.39Zm3.39,7.254h2.633c1.576,0,2.98-.347,2.98-2.311s-1.4-2.311-2.98-2.311h-2.633Z" transform="translate(-154.672 -188.396)" fill="#505257"/>
          <path id="Path_335" data-name="Path 335" d="M187.553,193.725a3.33,3.33,0,0,0-3.368-2.7c-3.044,0-4.189,2.591-4.189,5.288,0,2.569,1.146,5.16,4.189,5.16,2.072,0,3.238-1.424,3.5-3.454h3.282a6.508,6.508,0,0,1-6.778,6.3c-4.772,0-7.576-3.562-7.576-8.009,0-4.575,2.8-8.137,7.576-8.137,3.39,0,6.239,1.986,6.65,5.548Z" transform="translate(-162.877 -188.177)" fill="#505257"/>
          <path id="Path_336" data-name="Path 336" d="M204.965,198.841c0,2.05,1.6,2.849,3.41,2.849,1.188,0,3-.347,3-1.922,0-1.661-2.311-1.942-4.577-2.547-2.289-.6-4.6-1.49-4.6-4.381,0-3.151,2.977-4.663,5.762-4.663,3.215,0,6.175,1.4,6.175,4.965h-3.282c-.108-1.859-1.426-2.333-3.043-2.333-1.079,0-2.333.455-2.333,1.748,0,1.188.735,1.34,4.6,2.333,1.121.28,4.575.993,4.575,4.489,0,2.829-2.222,4.943-6.411,4.943-3.41,0-6.605-1.684-6.561-5.482Z" transform="translate(-172.255 -188.177)" fill="#505257"/>
          <path id="Path_337" data-name="Path 337" d="M238.311,198.841c0,2.05,1.6,2.849,3.412,2.849,1.187,0,3-.347,3-1.922,0-1.661-2.311-1.942-4.578-2.547-2.289-.6-4.6-1.49-4.6-4.381,0-3.151,2.979-4.663,5.765-4.663,3.218,0,6.175,1.4,6.175,4.965h-3.282c-.108-1.859-1.426-2.333-3.044-2.333-1.079,0-2.333.455-2.333,1.748,0,1.188.736,1.34,4.6,2.333,1.121.28,4.575.993,4.575,4.489,0,2.829-2.222,4.943-6.411,4.943-3.409,0-6.605-1.684-6.561-5.482Z" transform="translate(-184.727 -188.177)" fill="#505257"/>
          <path id="Path_338" data-name="Path 338" d="M272.794,204.175h-3.368l-2.61-10.492h-.044L264.2,204.175h-3.432l-4.081-15.413h3.39l2.438,10.492h.044l2.677-10.492h3.174l2.632,10.622h.042l2.527-10.622h3.323Z" transform="translate(-192.827 -188.396)" fill="#505257"/>
          <path id="Path_339" data-name="Path 339" d="M291.523,188.762h3.39v15.413h-3.39Z" transform="translate(-205.855 -188.396)" fill="#505257"/>
          <path id="Path_340" data-name="Path 340" d="M304.385,191.611h-4.619v-2.849h12.629v2.849h-4.619v12.564h-3.39Z" transform="translate(-208.938 -188.396)" fill="#505257"/>
          <path id="Path_341" data-name="Path 341" d="M332.648,193.725a3.331,3.331,0,0,0-3.368-2.7c-3.043,0-4.189,2.591-4.189,5.288,0,2.569,1.146,5.16,4.189,5.16,2.073,0,3.238-1.424,3.5-3.454h3.282a6.507,6.507,0,0,1-6.778,6.3c-4.771,0-7.576-3.562-7.576-8.009,0-4.575,2.805-8.137,7.576-8.137,3.39,0,6.239,1.986,6.65,5.548Z" transform="translate(-217.143 -188.177)" fill="#505257"/>
          <path id="Path_342" data-name="Path 342" d="M348.329,188.762h3.387v5.914h6.242v-5.914h3.39v15.413h-3.39v-6.65h-6.242v6.65h-3.387Z" transform="translate(-227.101 -188.396)" fill="#505257"/>
          <path id="Path_343" data-name="Path 343" d="M384.622,202.209a5.22,5.22,0,0,1-4.234,2.114c-4.766,0-7.573-3.562-7.573-8.009,0-4.575,2.807-8.137,7.573-8.137,3.152,0,6.131,1.942,6.5,5.44h-3.24a3.162,3.162,0,0,0-3.263-2.591c-3.04,0-4.184,2.591-4.184,5.288,0,2.569,1.143,5.16,4.184,5.16a3.34,3.34,0,0,0,3.673-3.323h-3.412v-2.528h6.475v8.334h-2.158Z" transform="translate(-236.259 -188.177)" fill="#505257"/>
          <path id="Path_344" data-name="Path 344" d="M400.052,188.762h11.53v2.849h-8.14v3.3h7.469v2.633h-7.469v3.778h8.312v2.849h-11.7Z" transform="translate(-246.446 -188.396)" fill="#505257"/>
          <path id="Path_345" data-name="Path 345" d="M425.639,188.762h3.479l5.759,15.413h-3.517l-1.165-3.432H424.43l-1.21,3.432h-3.429Zm-.322,9.454h3.994l-1.947-5.654h-.039Z" transform="translate(-253.828 -188.396)" fill="#505257"/>
          <path id="Path_346" data-name="Path 346" d="M446.027,188.762h8.311a4.235,4.235,0,0,1,4.511,4.252,3.792,3.792,0,0,1-2.436,3.865v.041c1.659.433,2.136,2.053,2.242,3.606.066.972.044,2.786.649,3.648h-3.39a16.978,16.978,0,0,1-.538-3.692c-.239-1.618-.865-2.331-2.568-2.331h-3.39v6.023h-3.39Zm3.39,6.974h3.712c1.514,0,2.336-.649,2.336-2.2,0-1.49-.821-2.139-2.336-2.139h-3.712Z" transform="translate(-263.641 -188.396)" fill="#505257"/>
        </g>
      </g>
      <g id="Group_351" data-name="Group 351">
        <rect id="Rectangle_186" data-name="Rectangle 186" width="2.12" height="1.981" transform="translate(19.456 14.67)" fill="#505257"/>
        <rect id="Rectangle_187" data-name="Rectangle 187" width="2.133" height="1.964" transform="translate(37.253 2.816)" fill="#505257"/>
        <rect id="Rectangle_188" data-name="Rectangle 188" width="2.119" height="1.964" transform="translate(40.479 2.816)" fill="#505257"/>
        <rect id="Rectangle_189" data-name="Rectangle 189" width="2.119" height="1.964" transform="translate(38.84)" fill="#505257"/>
        <path id="Path_347" data-name="Path 347" d="M212.746,163.392c0,1.109-.408,1.673-1.213,1.673H207.57a5.066,5.066,0,0,0,.291-1.725v-3.723h-2.408v3.809c0,1.093-.411,1.639-1.213,1.639h-3.911a4.834,4.834,0,0,0,.3-1.742v-3.706h-2.408v3.912c0,1.023-.408,1.537-1.212,1.537h-1.52a5.01,5.01,0,0,0,.29-1.725v-3.723h-2.391v3.912c0,1.023-.411,1.537-1.213,1.537H190.66a4.98,4.98,0,0,0,.292-1.725v-3.723h-2.408v3.826c0,1.2-.428,1.623-1.213,1.623h-6.558c-.292-2.527-1.368-4.219-3.193-5.087a6.209,6.209,0,0,0-2.666-.55,5.6,5.6,0,0,0-4.217,1.812c.563.768.954,1.3,1.193,1.623a4.252,4.252,0,0,1,2.854-1.229,3.405,3.405,0,0,1,2.63,1.109,3.635,3.635,0,0,1,.973,2.322H166.289a5.144,5.144,0,0,0,.272-1.725v-3.723h-2.408v3.809c0,1.093-.391,1.639-1.2,1.639h-3.6v-5.449h-2.408v6.369q0,2.256-2.359,2.256v1.931c2.716,0,4.253-.94,4.645-2.819h52.816a2.831,2.831,0,0,0,2.338-1.043,3.405,3.405,0,0,0,.752-2.252v-4.442h-2.391Z" transform="translate(-154.587 -153.538)" fill="#505257"/>
        <path id="Path_348" data-name="Path 348" d="M277.448,163.631c0,1.023-.408,1.537-1.213,1.537h-1.52a4.98,4.98,0,0,0,.292-1.725v-3.723h-2.392v3.912c0,1.023-.411,1.537-1.212,1.537h-1.521a5,5,0,0,0,.291-1.725v-3.723h-2.408v3.809a2.4,2.4,0,0,1-.1.888,1.092,1.092,0,0,1-1.109.752h-3.5v-1.554a3.731,3.731,0,0,0-3.793-3.912,3.688,3.688,0,0,0-3.876,3.859,3.754,3.754,0,0,0,3.876,3.895,5.872,5.872,0,0,0,1.47-.1c-.188.666-.735,1.007-1.659,1.007h-.2v1.914h.255q3.484,0,3.895-2.819h13.3a3.353,3.353,0,0,0,2.289-.9,3.981,3.981,0,0,0,1.246-3.127v-3.706h-2.408Zm-16.784,1.537h-1.385a1.536,1.536,0,0,1-1.468-1.709c0-.9.478-1.6,1.385-1.6a1.483,1.483,0,0,1,1.468,1.656Z" transform="translate(-192.287 -153.641)" fill="#505257"/>
        <path id="Path_349" data-name="Path 349" d="M332.935,163.495c0,1.109-.408,1.673-1.212,1.673H324.5a4.78,4.78,0,0,0,.308-1.742v-3.706H322.4v3.912c0,1.023-.411,1.537-1.213,1.537h-1.52a5.056,5.056,0,0,0,.289-1.725v-3.723h-2.389v3.912c0,1.023-.411,1.537-1.215,1.537h-1.279c.017-.222.034-.444.034-.682v-.563a4.723,4.723,0,0,0,.016-.48v-3.723h-.016V159.7H312.7v4.562a4.607,4.607,0,0,1-.683,2.6,2.64,2.64,0,0,1-2.306,1.212,2.6,2.6,0,0,1-2.3-1.212,4.587,4.587,0,0,1-.7-2.6V159.7h-2.391v4.783a5.783,5.783,0,0,0,1.556,4.133,5.236,5.236,0,0,0,7.751-.086,7.705,7.705,0,0,0,.768-1.077h17.846a2.831,2.831,0,0,0,2.339-1.043,3.406,3.406,0,0,0,.752-2.252v-4.442h-2.392Z" transform="translate(-210.586 -153.641)" fill="#505257"/>
        <rect id="Rectangle_190" data-name="Rectangle 190" width="2.391" height="11.016" transform="translate(127.426 2.799)" fill="#505257"/>
        <path id="Path_350" data-name="Path 350" d="M402.717,163.641c0,1.023-.408,1.537-1.212,1.537h-1.521a5,5,0,0,0,.291-1.725v-3.723h-2.391v3.912c0,1.023-.41,1.537-1.212,1.537h-1.521a4.981,4.981,0,0,0,.292-1.725v-3.723h-2.408v3.809a2.419,2.419,0,0,1-.1.888,1.094,1.094,0,0,1-1.11.752h-5.26a1.95,1.95,0,0,1-2.031-1.04,4.056,4.056,0,0,0-3.826-2.358,9.571,9.571,0,0,0-1.043.017v2.083a1.739,1.739,0,0,1,.411-.05,1.533,1.533,0,0,1,1.587,1.5c0,1.589-1.759,2.752-3.6,2.752a3.512,3.512,0,0,1-3.773-3.825v-1.829h-2.391v2.05a5.889,5.889,0,0,0,6.114,5.823c2.783,0,5.21-1.537,5.737-3.842a4.148,4.148,0,0,0,2.943,1.007h14.9a3.353,3.353,0,0,0,2.289-.9,3.981,3.981,0,0,0,1.245-3.127v-3.706h-2.408Z" transform="translate(-235.861 -153.651)" fill="#505257"/>
        <rect id="Rectangle_191" data-name="Rectangle 191" width="1.809" height="1.692" transform="translate(190.729 15.164)" fill="#505257"/>
        <path id="Path_351" data-name="Path 351" d="M452.27,159.729V163.5c0,1.109-.407,1.673-1.212,1.673h-1.623a1.951,1.951,0,0,1-2.031-1.04,4.055,4.055,0,0,0-3.825-2.358,9.572,9.572,0,0,0-1.043.017v2.083a1.738,1.738,0,0,1,.41-.05,1.533,1.533,0,0,1,1.587,1.5c0,1.589-1.759,2.752-3.6,2.752a3.512,3.512,0,0,1-3.773-3.825v-1.829h-2.391v2.05a5.89,5.89,0,0,0,6.115,5.823c2.783,0,5.21-1.537,5.737-3.842a4.044,4.044,0,0,0,2.683,1.007h2.272a2.853,2.853,0,0,0,2.358-1.043,3.411,3.411,0,0,0,.732-2.252v-4.442Z" transform="translate(-259.375 -153.651)" fill="#505257"/>
        <rect id="Rectangle_192" data-name="Rectangle 192" width="1.792" height="1.692" transform="translate(193.478 15.164)" fill="#505257"/>
        <rect id="Rectangle_193" data-name="Rectangle 193" width="1.812" height="1.693" transform="translate(192.094 17.469)" fill="#505257"/>
        <rect id="Rectangle_194" data-name="Rectangle 194" width="2.117" height="1.981" transform="translate(119.395 14.67)" fill="#505257"/>
        <rect id="Rectangle_195" data-name="Rectangle 195" width="2.136" height="1.981" transform="translate(122.605 14.67)" fill="#505257"/>
        <rect id="Rectangle_196" data-name="Rectangle 196" width="2.136" height="1.981" transform="translate(58.414 14.67)" fill="#505257"/>
        <rect id="Rectangle_197" data-name="Rectangle 197" width="2.117" height="1.981" transform="translate(55.205 14.67)" fill="#505257"/>
        <rect id="Rectangle_198" data-name="Rectangle 198" width="2.119" height="1.964" transform="translate(47.756 2.816)" fill="#505257"/>
        <rect id="Rectangle_199" data-name="Rectangle 199" width="2.117" height="1.964" transform="translate(50.969 2.816)" fill="#505257"/>
        <rect id="Rectangle_200" data-name="Rectangle 200" width="2.119" height="1.981" transform="translate(6.497 14.67)" fill="#505257"/>
        <rect id="Rectangle_201" data-name="Rectangle 201" width="2.117" height="1.981" transform="translate(9.709 14.67)" fill="#505257"/>
      </g>
    </g>
  </g>
</svg>
