<?xml version="1.0" encoding="UTF-8"?>
<svg id="Layer_2" xmlns="http://www.w3.org/2000/svg" viewBox="0 0 482.46 397.88">
  <defs>
    <style>
      .cls-1 {
        fill: #145385;
      }
    </style>
  </defs>
  <g id="Layer_1-2" data-name="Layer_1">
    <g>
      <path class="cls-1" d="M229.24,225.26c-1.47.12-3.94-.36-6.19.95-.84.49-2.04.93-2.47-.45-.38-1.21.77-1.69,1.67-2.1,3.64-1.67,7.58-.62,11.33-1.21,2.86-.45,7.06,1.44,8.32-1.35,1.37-3.03-2.66-5.15-4.55-7.46-6.51-7.93-11.73-16.64-16.44-25.71-1.68-3.22-.43-3.7,2.59-4.11,4.91-.67,9.77-1.82,14.61-2.93,9.11-2.08,10.68-13.69,9.26-20.76-3.11-15.58-20.27-21.18-32.01-19.47-3.11.45-4.17,1.88-3.99,4.77.41,6.48,1.31,12.89,1.43,19.42.23,12.13,1.27,24.24,1.96,36.36.28,4.91,1.28,9.34,6.84,11.01.96.29,1.99.79,1.53,2.1-.4,1.15-1.48,1.23-2.51,1.11-9.55-1.17-19.05-.04-28.55.73-.82.07-1.87.45-2.17-.66-.28-1.01.69-1.5,1.45-1.81,6.93-2.76,8.13-8.34,7.81-14.94-.48-9.91-.94-19.83-.94-29.74,0-8.57-.49-17.35,5.18-24.84,1.27-1.67-.2-2.47-1.59-2.35-10.28.86-20.9.4-29.66,7.39-4.84,3.86-6.41,8.79-6.34,14.9.16,13.28,7.6,21.65,18.01,28.34,1.34.86,3.96,1.46,3.31,3.3-.79,2.24-3.36.93-4.96.62-10.32-1.99-20.29-12.86-21.64-23.29-.92-7.06-1.41-13.91,2.87-20.41,4.54-6.91,11.2-9.92,18.74-12.12,11.89-3.46,24.12-3.97,36.29-3.89,10.03.07,20.1.97,29.88,4.12,14.69,4.73,17.76,23.37,10.28,32.96-5,6.41-12.2,10.09-20.57,10.94-4.78.48-5.35,1.58-2.53,5.44,4.01,5.5,8.18,10.88,12.36,16.26,1.8,2.31,2.86,1.96,4.62-.64,6.07-8.99,10.86-18.5,13.89-28.9.31-1.06.74-2.41,2.16-2.25,1.89.22,1.7,1.99,1.98,3.32,3.33,15.72,9.4,30.52,15.44,45.32,1.76,4.32,4.11,8.4,6.19,12.58,2.45,4.92,5.02,6.44,10.74,5.12,4.8-1.11,9.69-2.39,13.52-5.91.8-.73,1.84-2.07,2.85-1.13,1.36,1.26.15,2.77-.79,3.69-3.83,3.71-8.2,6.57-13.5,7.82-5.95,1.41-5.87,1.37-2.12,6.09,5.59,7.03,11.27,13.92,19.79,17.71.88.39,1.89,1.05,1.59,2.24-.29,1.16-1.44,1.34-2.44,1.3-12.25-.45-23.83-2.46-31.76-13.23-7.31-9.93-17.59-16.19-28.12-22.08-3.07-1.72-5.14-4.47-7.85-6.51-4.8-3.62-8.71-3.97-13.17,1.4-6.58,7.94-13.17,16.28-21.98,22.17-1.4.94-3.05,1.51-4.57,2.28-3.17,1.61-6,1.24-7.52-2.1-1.51-3.33,1.02-5.73,3.44-6.83,8.03-3.63,14.74-9.02,21.36-14.6,1.51-1.28,2.89-2.72,4.29-4.13.73-.73,2.29-1.1,1.56-2.6-.58-1.17-1.82-1.24-2.98-1.24-1.42,0-2.85,0-5.19,0ZM262.12,200.36c-1.14.17-1.66,1.01-2.18,1.88-1.73,2.93-3.26,5.99-5.68,8.46-1.59,1.62-.53,2.65.69,3.87,5.02,5,9.96,10.07,14.92,15.13.67.68,1.13,1.88,2.37,1.08,1.06-.69.75-1.67.32-2.64-3.64-8.16-6.35-16.63-8.48-25.3-.27-1.11-.6-2.22-1.96-2.48Z"/>
      <g>
        <path class="cls-1" d="M.18,266.38c-1.88-27.27,11.46-48.15,27.51-67.46,14.56-17.52,33.19-30.18,53.82-39.79,4.05-1.89,6-4.43,6.34-9.04,1.29-17.62,7.29-33.75,14.42-49.88,3.26-7.36,5.04-15.6,9.89-22.23,6.69-9.17,13.62-18.23,21.18-26.68,7.72-8.63,16.01-16.83,24.72-24.47,3.91-3.43,9.31-5.28,14.24-7.39,11.47-4.92,22.92-9.96,34.67-14.13,5.93-2.11,12.49-2.5,18.79-3.52,4.19-.68,8.41-1.26,12.64-1.59,15.14-1.18,29.5,3.39,43.98,6.55,5.62,1.23,10.89,4.21,16.18,6.68,6.94,3.25,14.11,6.22,20.5,10.36,6.16,4,11.42,9.37,17.12,14.08,1.24,1.02,2.7,1.77,4.05,2.66,1.72,1.14,3.88,1.95,5.08,3.49,6.48,8.31,12.83,16.73,19.01,25.27,4.07,5.63,8.93,11.05,11.46,17.36,8.19,20.39,17.66,40.51,19.48,62.86.47,5.79,3.92,8.24,8.42,10.51,22.44,11.31,42.64,25.61,57.69,46.05,11.12,15.1,20.39,31.52,21.07,50.7.33,9.29-2.28,18.86-4.66,28.01-1.72,6.61-4.54,13.2-8.16,18.99-5.03,8.02-10.58,15.95-17.18,22.69-6.92,7.06-14.96,13.21-23.18,18.78-10.57,7.17-21.24,14.68-32.88,19.67-16.84,7.22-34.41,12.95-52.02,18.13-14.56,4.28-29.54,7.35-44.51,9.98-9.84,1.73-20,1.58-29.98,2.56-4.71.46-9.37,2.42-14.01,2.3-12.14-.33-24.27-1.42-36.4-2.23-6.42-.43-12.92-.44-19.25-1.46-18.68-3.01-37.52-5.53-55.88-9.97-16.29-3.94-32.17-9.79-47.96-15.54-9.81-3.58-19.58-7.78-28.52-13.11-8.41-5.01-15.99-11.54-23.42-17.99-8.24-7.15-16.31-14.58-23.64-22.64-3.77-4.15-5.95-9.83-8.5-14.99-2.84-5.73-5.62-11.54-7.8-17.54-1.89-5.18-2.9-10.68-4.3-16.04ZM245.41,310.86c.04-.51.08-1.02.12-1.52,6.7,0,13.49.7,20.08-.14,15.98-2.02,31.87-4.78,47.8-7.19,6.15-.93,12.36-1.6,15.49-8.24,1.3-2.76,2.7-5.48,4.24-8.12,4.49-7.69,10.44-14.86,13.26-23.11,3.55-10.38,4.77-21.6,6.61-32.52.89-5.3,1.9-10.89,1.15-16.09-2.29-15.71-3.32-31.45-9.57-46.73-5.14-12.58-11.69-23.81-20.28-33.72-12.65-14.59-27.9-25.54-46.6-32.37-32.26-11.77-62.61-7.68-91.64,8.54-18.31,10.23-31.77,25.96-42.14,44.11-7.13,12.48-10.88,26.18-12.9,40.32-1.2,8.39-3,17-2.24,25.3,1.18,12.98,2.83,25.89,7.1,38.63,4.66,13.86,10.74,26.5,19.65,37.87,1.43,1.82,3.78,3.5,6,4.04,7.83,1.88,15.73,3.75,23.71,4.69,20.01,2.36,40.09,4.2,60.14,6.25ZM85.38,172.33c-1.95.59-3.31.57-3.81,1.22-5.69,7.35-13.31,14.03-16.43,22.38-7.18,19.21-5.45,38.66,7.9,55.01,7.17,8.78,16.45,15.97,25.39,23.13,4.97,3.98,11.17,6.4,16.82,9.53.77-.53,1.54-1.05,2.32-1.58-20.65-33.47-33.16-69.24-32.19-109.68ZM366,283.27c.57.26,1.13.51,1.7.77,12.28-9.34,26.69-15.54,37.05-27.89,6.35-7.57,12.25-14.99,14.53-24.6,4.81-20.3.32-38.32-14.25-53.5-1.6-1.66-4.02-2.54-6.74-4.19-1.19,12.36-1.74,23.18-3.37,33.85-3.83,25.13-12.41,48.52-27.04,69.54-1.15,1.64-1.27,4-1.86,6.03ZM292.75,65.37c5.31,3.66,9.85,7.25,14.84,10.04,2.38,1.33,5.6,1.17,8.43,1.69.39-2.9,1.16-5.82,1.06-8.7-.08-2.38-1.19-4.73-1.85-7.09.49-.16.99-.32,1.48-.48,1.09,1.81,2.18,3.62,3.66,6.06,1.3-5.6.75-7.69-3.31-9.38-2.2-.92-5.02-.33-7.56-.42.06,2.75-.18,5.56.29,8.24.43,2.47,1.62,4.8,2.47,7.19-.41.24-.82.49-1.23.73-2.56-1.99-5.11-3.98-7.67-5.97-.51.32-1.03.64-1.54.96-.7-10.32.23-20.92-4.29-32.16-6.82,8.58-12.71,15.99-19.04,23.95,1.92.76,3.67,1.45,5.51,2.18,1.71-3.36,1.28-8.42,7.03-5.84,5.66,2.54,3.81,5.91,1.71,9ZM139.21,136.26c1.98-4.18,3.95-8.35,5.43-11.48-3.08-2.24-5.53-4.02-7.99-5.8l.56-1.58c6.38-.53,14.12,1.45,15.92-7.97-.72-.23-1.33-.65-1.85-.56-5.95,1.08-9.85.19-10.59-7.26-.49-4.9-5.64-6.13-8.71-1.84-4.92,6.88-8.55,14.68-12.73,22.09,6.89-1.46,17.87,6.82,19.96,14.4ZM300.7,344.18c.4-.45,1.03-.83,1.16-1.34,1.51-6-.12-7.8-8.54-9.49-7.98-1.6-15,.32-20.45,6.41-5.22,5.83-5.84,12.73-3.37,19.96,3.26,9.52,15.57,13.97,27.6,10.59,5.91-1.66,6.44-5.2,5.54-10.48-10.74,9.11-16.28,10.23-21.2,4.58-5.14-5.89-4.98-19.84.29-25.14,5.16-5.19,10.05-3.94,18.97,4.89ZM250.17,361.51l-1.91-1.62c-.64,1.31-.96,3.31-1.98,3.79-3.19,1.49-6.65,2.41-10,3.55-.85-2.74-1.9-5.43-2.48-8.23-.38-1.8-.29-3.78-.03-5.62.89-6.31-3.06-13.54,5.26-19.39h-17.64c5.05,7.87,4.39,30.33-1.75,37.16,7.89,0,14.65.07,21.41-.02,8.73-.11,8.73-.17,9.13-9.61ZM202.62,361.22c-.6-.6-1.19-1.21-1.79-1.81-1.08,1.94-1.7,4.7-3.35,5.64-2.5,1.42-5.88,2.41-8.58,1.91-1.32-.24-2.52-4.17-2.78-6.54-.45-4.14-.41-8.38-.05-12.54.39-4.49,1.38-8.94,2.17-13.79h-14.84c6.16,6.92,5.39,30.57-.42,36.42,6.47.74,12.98.77,19.48.73q9.4-.06,10.17-10.03ZM205.46,63.94c-1.76-4.56-3.13-8.12-4.52-11.68-1.69-4.31-4.8-5.4-8.98-3.81-4.92,1.87-8.62,6.95-7.53,9.97.85,2.37,1.6,4.84,1.94,7.32.56,4.05,2.26,7.54,6.65,5.83,4.63-1.81,8.64-5.21,12.45-7.63ZM340.93,108.88c2.08-4.2,2.92-6.81,4.48-8.87,5.43-7.17,3.08-16.94-5.32-20.47-1.09-.46-2.78.51-4.19.81.83,1.4,1.37,3.18,2.57,4.1,1.24.95,3.13,1.06,4.73,1.54l-.5,2.08c-1.62-.3-3.39-.29-4.84-.97-3.03-1.43-6.28-3.99-8.63.26-2.12,3.84-1.3,7.68,2.66,10.36,1.28.87,2.79,1.6,3.69,2.78,1.81,2.4,3.26,5.06,5.34,8.37ZM355.04,98.77c-4.11,4.7-7.67,8.76-11.23,12.82-.65-.28-1.3-.56-1.95-.84,2.09,3.15,4.19,6.29,6.21,9.33,2.17-2.59,3.7-5.16,5.92-6.81,1.38-1.03,3.8-.65,5.76-.91.05,2.28,1.05,5.38-.06,6.67-2.31,2.69-5.74,4.42-8.96,6.72,1.47,2.82,3.23,6.2,4.99,9.58l-2.42-3.3c3.25-1.49,6.7-2.67,9.69-4.56,4.01-2.54,5.48-6.48,3.04-10.81-3.48-6.18-7.41-12.12-10.99-17.9ZM229.53,56.75c-1.2-4.28-2.48-8.15-3.35-12.11-.83-3.75-2.13-7.67-6.56-6.61-5.6,1.34-10.87,4.08-14.54,5.53,1.64,7.38,2.93,13.23,4.33,19.52,1.92-.76,4.72-1.86,6.89-2.72-.97-4.63-2.13-8.77-2.53-12.98-.12-1.25,1.93-2.71,2.99-4.07.99,1.15,2.65,2.19,2.84,3.46.61,3.97.66,8.03.98,12.69,3.25-.99,6.75-2.05,8.95-2.71ZM153.11,95.76c1.91-2.55,4.03-4.79,5.42-7.42.96-1.8.92-4.14,1.32-6.23-2.66-.1-6.27-1.33-7.77-.07-2.65,2.25-4.45,5.83-5.83,9.18-1.81,4.43-.93,9.08,3.19,11.6,2.19,1.34,6.19,1.53,8.51.43,4.37-2.08,6.84-6.12,6.36-12.35-3.45,3.02-5.18,8.22-11.22,4.86ZM256.01,48.34c.41-.88.83-1.77,1.24-2.65,2.39.27,4.79.43,7.16.85,3.47.62,5.06-1.13,4.14-4.1-.72-2.34-2.36-4.91-4.35-6.24-4.21-2.79-8.54-1.64-11.75,2.01-3.81,4.34-3.04,9.34-.53,13.97,2.42,4.45,6.66,5.38,11.3,4.36,1.06-.23,1.89-1.54,2.45-2.03-3.5-2.23-6.59-4.19-9.67-6.16ZM155.51,68.07c6.1,7.01,11.68,13.58,12.82,23.76,2.86-3.03,5.32-5.62,7.14-7.55-4.89-8.2-9.36-15.72-14.11-23.69-2.41,3.09-4.4,5.63-5.85,7.48ZM248.33,50.9c-2.2.35-3.88,1.11-5.18.7-1.92-.61-4.82-1.83-5.07-3.2-.56-3.06.27-6.38.53-9.59,1.95.32,3.89.69,5.84.94,1.26.16,2.53.16,3.8.23-.67-1.58-.91-3.71-2.09-4.62-3.52-2.72-11.05-.5-13.91,3.74-3.39,5.03-2.1,12.2,2.81,15.68,3.97,2.81,9,1.57,13.26-3.88ZM324.14,88.71c3.14-6.22,5.99-11.86,9.02-17.84-2.74-1.56-5.1-2.9-7.62-4.34-1.59,6.69-1.91,13.19-10.3,14.77,3.34,2.78,6.13,5.11,8.91,7.42ZM179.91,80.78c1.82-1.43,4.65-3.65,6.77-5.32-3.24-5.82-6.2-11.14-9.55-17.14-2.39,2.36-4.51,4.46-5.43,5.37,3.1,6.45,5.59,11.63,8.21,17.09ZM211.36,360.68c-1.99,3.03-4.14,4.87-3.9,6.31.27,1.6,2.77,4.01,4.18,3.93,1.51-.08,3.85-2.54,4.04-4.17.17-1.43-2.12-3.16-4.32-6.07ZM258.65,360.83c-1.9,2.96-4.12,4.91-3.81,6.31.36,1.61,3,3.8,4.56,3.72,1.49-.07,3.88-2.68,3.96-4.27.07-1.48-2.38-3.08-4.71-5.77ZM318.82,366.52c-3.34-1.88-5.33-3.91-6.75-3.56-1.55.37-3.33,2.85-3.54,4.59-.13,1.04,2.61,3.47,3.96,3.39,1.67-.09,3.24-2.12,6.34-4.42ZM337.35,65.52c-2.49-2.01-3.94-3.48-5.7-4.37-.39-.2-2.75,2.26-2.63,2.44,1.16,1.76,2.57,3.41,4.19,4.75.25.21,1.92-1.28,4.14-2.82Z"/>
        <path class="cls-1" d="M134.23,116.82c3.02-3.71,3.26-7.13-.13-9.96-.65-.54-3.91.62-4.59,1.79-3.05,5.23,2.47,5.58,4.72,8.17Z"/>
        <path class="cls-1" d="M134.23,116.82c-2.25-2.59-7.78-2.94-4.72-8.17.69-1.17,3.94-2.33,4.59-1.79,3.4,2.83,3.15,6.25.13,9.96Z"/>
      </g>
    </g>
  </g>
</svg>