<svg xmlns="http://www.w3.org/2000/svg" xmlns:xlink="http://www.w3.org/1999/xlink" width="300" height="300" viewBox="0 0 300 300">
  <defs>
    <clipPath id="clip-Custom_Size_1">
      <rect width="300" height="300"/>
    </clipPath>
  </defs>
  <g id="Custom_Size_1" data-name="Custom Size – 1" clip-path="url(#clip-Custom_Size_1)">
    <rect width="300" height="300" fill="#fff"/>
    <rect id="Rectangle_151" data-name="Rectangle 151" width="300" height="300" fill="#AC1D37"/>
    <text id="_2019_Certificate_of_Appreciation_WETEX" data-name="2019
Certificate of Appreciation
WETEX" transform="translate(155 60.269)" fill="#fff" font-size="18" font-family="Roboto" font-weight="200" letter-spacing="0.02em"><tspan x="-28.55" y="24">2019</tspan><tspan x="-58.275" y="55">Certificate of </tspan><tspan x="-54.25" y="86">Appreciation</tspan><tspan x="-35.55" y="117">WETEX</tspan></text>
    <g id="Group_261" data-name="Group 261" transform="translate(-242.147 -73.9)">
      <path id="Path_236" data-name="Path 236" d="M304.6,127.949a18.653,18.653,0,0,0-4.96-2.817,18.015,18.015,0,0,0-5.225-.983,41.809,41.809,0,0,0-11.361,1.431c-3.789.933-7.384,2.06-10.08,2.982-2.679.895-4.429,1.585-4.429,1.585A45.277,45.277,0,0,0,273,132.318a49.781,49.781,0,0,0,10.72,3.225,28.664,28.664,0,0,0,12.548-.315C300.17,134.124,303.495,131.733,304.6,127.949Z" transform="translate(47.032 168.374)" fill="#ffcd4f"/>
      <path id="Path_237" data-name="Path 237" d="M275.61,132.812a21.966,21.966,0,0,0,6.429,8.655,11.513,11.513,0,0,0,4.639,2.154,8.913,8.913,0,0,0,5.214-.5,17.363,17.363,0,0,0-2.69-9.837,30.022,30.022,0,0,0-6.6-7.114,71.046,71.046,0,0,0-6.97-4.921c-1.922-1.21-3.236-1.916-3.236-1.916s.011.436.088,1.176.2,1.795.4,3.071A38.582,38.582,0,0,0,275.61,132.812Z" transform="translate(64.45 146.71)" fill="#ffcd4f"/>
      <path id="Path_238" data-name="Path 238" d="M288.975,133.666a12.06,12.06,0,0,0,9.505-4.811,13.243,13.243,0,0,0-8.163-6.241,44.33,44.33,0,0,0-11.328-1.453c-3.91-.116-7.793-.028-10.7-.016-2.993.061-4.866.088-4.866.088s.359.4,1.038,1.06c.674.624,1.662,1.552,2.883,2.557a45.334,45.334,0,0,0,9.8,6.147A26.744,26.744,0,0,0,288.975,133.666Z" transform="translate(23.851 154.699)" fill="#ffcd4f"/>
      <path id="Path_239" data-name="Path 239" d="M272.847,139.831a10.45,10.45,0,0,0,8.9,4.33,14.473,14.473,0,0,0,.226-10.312,31.934,31.934,0,0,0-4.689-8.649c-1.856-2.546-3.739-4.717-5.125-6.274-.674-.784-1.254-1.408-1.668-1.834-.387-.436-.624-.663-.624-.663s-.127.387-.315,1.088-.392,1.712-.591,2.949a31.611,31.611,0,0,0-.05,9.444A21.315,21.315,0,0,0,272.847,139.831Z" transform="translate(47.186 133.566)" fill="#ffcd4f"/>
      <path id="Path_240" data-name="Path 240" d="M264.572,116.84c-2.684-.84-4.424-1.337-4.424-1.337s.166.442.5,1.193c.364.735.906,1.784,1.6,3.021s1.541,2.662,2.524,4.164c.492.751,1.016,1.519,1.569,2.292l.447.591.541.723c.387.481.768.961,1.143,1.436a24.605,24.605,0,0,0,10.831,7.8,11.275,11.275,0,0,0,10.676-1.546,14.914,14.914,0,0,0-5.893-8.61c-.7-.574-1.486-1.088-2.27-1.629s-1.629-1.044-2.48-1.552c-.851-.536-1.723-1.049-2.623-1.558-.851-.464-1.679-.878-2.546-1.281A78.928,78.928,0,0,0,264.572,116.84Z" transform="translate(9.052 129.373)" fill="#ffcd4f"/>
      <path id="Path_241" data-name="Path 241" d="M266.218,135.91a9.551,9.551,0,0,0,6.959,6.788,16.12,16.12,0,0,0,3.49-9.56,44.855,44.855,0,0,0-.563-8.666,33.083,33.083,0,0,0-.939-4.269c-.4-1.447-.851-2.75-1.259-3.839s-.784-1.988-1.049-2.607c-.226-.63-.364-.983-.364-.983s-.265.353-.674.994c-.436.646-.944,1.557-1.552,2.7a48.059,48.059,0,0,0-3.612,8.969c-.254.884-.469,1.784-.646,2.7a23.709,23.709,0,0,0-.387,2.607,19.163,19.163,0,0,0,.072,2.634A15.024,15.024,0,0,0,266.218,135.91Z" transform="translate(33.729 117.029)" fill="#ffcd4f"/>
      <path id="Path_242" data-name="Path 242" d="M267.758,129.127a15.607,15.607,0,0,0,2.087,2.055,19.888,19.888,0,0,0,2.27,1.7,12.2,12.2,0,0,0,10.378,1.751,11.082,11.082,0,0,0-.32-5.219,11.634,11.634,0,0,0-1.011-2.3c-.4-.746-.928-1.442-1.408-2.16-2.032-2.822-5.169-5.263-8.329-7.44a91.938,91.938,0,0,0-8.771-5.457c-2.524-1.353-4.12-2.2-4.12-2.2s.077.481.287,1.3.552,1.955,1.022,3.336a43.928,43.928,0,0,0,4.43,9.787A40.537,40.537,0,0,0,267.758,129.127Z" transform="translate(1.751 103.809)" fill="#ffcd4f"/>
      <path id="Path_243" data-name="Path 243" d="M264.877,134.643a10.185,10.185,0,0,0,3.314,3.855,14.016,14.016,0,0,0,6.434-8.1,18.47,18.47,0,0,0,.613-2.452c.077-.4.144-.823.193-1.232.055-.425.127-.845.193-1.27a31.9,31.9,0,0,0,.215-5,81.7,81.7,0,0,0-.823-8.506c-.182-1.1-.392-2.016-.53-2.646-.111-.641-.177-.989-.177-.989s-.315.287-.84.823a27.457,27.457,0,0,0-2.032,2.287,44.252,44.252,0,0,0-5.236,8.047,24.278,24.278,0,0,0-2.513,10.345,9.583,9.583,0,0,0,.337,2.507A11.31,11.31,0,0,0,264.877,134.643Z" transform="translate(25.067 96.811)" fill="#ffcd4f"/>
      <path id="Path_244" data-name="Path 244" d="M262.931,125.035a22.028,22.028,0,0,0,1.563,2.491,21.578,21.578,0,0,0,1.911,2.137,12.136,12.136,0,0,0,9.881,3.75,11.1,11.1,0,0,0,.674-5.164,12.951,12.951,0,0,0-.547-2.447,18.469,18.469,0,0,0-.895-2.4,24.3,24.3,0,0,0-2.888-4.645c-.6-.746-1.188-1.5-1.779-2.237s-1.22-1.458-1.856-2.165c-2.568-2.828-5.407-5.413-7.379-7.346-2.027-1.922-3.463-3.143-3.463-3.143s-.05,1.955.121,4.9a45.675,45.675,0,0,0,.746,5.009c.166.917.37,1.861.6,2.817a21.689,21.689,0,0,0,.828,2.877A40.217,40.217,0,0,0,262.931,125.035Z" transform="translate(0 76.761)" fill="#ffcd4f"/>
      <path id="Path_245" data-name="Path 245" d="M265.5,131.4a14.343,14.343,0,0,0,7.881-6.622,18.987,18.987,0,0,0,1.077-2.209,23.147,23.147,0,0,0,.955-2.309,28.455,28.455,0,0,0,1.2-4.684c.293-1.535.613-3.032.762-4.418.088-.69.144-1.353.193-1.983s.061-1.215.138-1.756a28.23,28.23,0,0,0,.2-3.562,38.307,38.307,0,0,0-3.518,2.292c-.508.364-1.066.79-1.646,1.248a22.091,22.091,0,0,0-1.751,1.513,39.319,39.319,0,0,0-3.474,3.723c-.563.7-1.1,1.419-1.629,2.171-.249.376-.5.768-.735,1.154-.221.387-.431.784-.619,1.182a20.171,20.171,0,0,0-1.7,4.943,12.977,12.977,0,0,0-.237,2.507,11.161,11.161,0,0,0,.386,2.425A10.094,10.094,0,0,0,265.5,131.4Z" transform="translate(20.122 76.679)" fill="#ffcd4f"/>
      <path id="Path_246" data-name="Path 246" d="M268.563,110.813c-.873-1.685-1.817-3.325-2.734-4.855-.95-1.535-1.8-2.927-2.513-4.1-1.475-2.364-2.546-3.91-2.546-3.91s-.558,1.867-1.143,4.75c-.221,1.469-.425,3.187-.563,5.048-.072.928-.127,1.889-.149,2.872,0,.989.066,2,.149,3.021a35.57,35.57,0,0,0,.955,6.009,23.186,23.186,0,0,0,2.292,5.368,11.807,11.807,0,0,0,8.737,5.976,11.523,11.523,0,0,0,1.171-2.391,12.067,12.067,0,0,0,.4-7.456,25.631,25.631,0,0,0-1.585-5.17C270.3,114.243,269.391,112.492,268.563,110.813Z" transform="translate(3.47 49.98)" fill="#ffcd4f"/>
      <path id="Path_247" data-name="Path 247" d="M273.2,118.289a19.409,19.409,0,0,0,3-3.794,28.811,28.811,0,0,0,2.386-4.109c.342-.685.6-1.375.928-2.038.315-.668.608-1.32.862-1.95.536-1.265.906-2.447,1.259-3.452a29.579,29.579,0,0,0,1.1-3.347,37.428,37.428,0,0,0-3.988,1.287,35.234,35.234,0,0,0-8.279,4.429,20.523,20.523,0,0,0-2.11,1.679,24.984,24.984,0,0,0-1.861,1.883,18.357,18.357,0,0,0-2.911,4.314,12.192,12.192,0,0,0-1.033,4.777,8.274,8.274,0,0,0,.331,2.419,10.8,10.8,0,0,0,1.127,2.375A14.909,14.909,0,0,0,273.2,118.289Z" transform="translate(19.966 57.438)" fill="#ffcd4f"/>
      <path id="Path_248" data-name="Path 248" d="M270.189,124.826a10.306,10.306,0,0,0,1.27-2.154,11.646,11.646,0,0,0,.729-2.369c.166-.812.226-1.662.32-2.518a24.652,24.652,0,0,0-.287-5.385,55.392,55.392,0,0,0-1.082-5.573c-.95-3.717-1.983-7.213-2.9-9.886s-1.558-4.374-1.558-4.374-.254.4-.652,1.138-.922,1.817-1.508,3.137A45.789,45.789,0,0,0,261.23,107.1a37.682,37.682,0,0,0-.536,6.015,16.359,16.359,0,0,0,.232,2.944,20.034,20.034,0,0,0,.6,2.784A12.651,12.651,0,0,0,264,123.589a11.9,11.9,0,0,0,4.446,3.237A10.623,10.623,0,0,0,270.189,124.826Z" transform="translate(11.51 25.628)" fill="#ffcd4f"/>
      <path id="Path_249" data-name="Path 249" d="M287.627,96.532c.337-.53.514-.84.514-.84s-.425,0-1.16.028c-.751.028-1.779.1-3.027.265s-2.7.392-4.28.751c-.779.182-1.618.376-2.414.63s-1.613.541-2.436.867a27.33,27.33,0,0,0-4.761,2.414,19.5,19.5,0,0,0-3.866,3.419,9.594,9.594,0,0,0-1.359,2.066,12.061,12.061,0,0,0-.856,2.253,9.98,9.98,0,0,0-.3,2.408,10.2,10.2,0,0,0,.475,2.563,14.092,14.092,0,0,0,5.385-.133,16.992,16.992,0,0,0,4.634-1.789,18.6,18.6,0,0,0,2.021-1.342c.331-.238.629-.5.928-.751.32-.249.635-.508.939-.773a27.23,27.23,0,0,0,3.3-3.391,36.9,36.9,0,0,0,2.767-3.424c.193-.271.375-.547.563-.817.2-.271.387-.525.58-.773.359-.508.7-.994.989-1.436C286.864,97.824,287.312,97.062,287.627,96.532Z" transform="translate(25.045 39.767)" fill="#ffcd4f"/>
      <path id="Path_250" data-name="Path 250" d="M268.308,121.434a10.669,10.669,0,0,0,3.888-3.292,12.492,12.492,0,0,0,2.182-4.457,36.365,36.365,0,0,0,1.143-10.9c-.011-.95-.055-1.894-.111-2.822-.033-.906-.094-1.8-.154-2.662-.133-1.734-.3-3.352-.458-4.739-.282-2.734-.591-4.557-.591-4.557s-.315.359-.862.967-1.3,1.508-2.132,2.668-1.823,2.485-2.745,4.048a45.686,45.686,0,0,0-2.612,5.065,34.358,34.358,0,0,0-1.85,5.639,21.887,21.887,0,0,0-.525,5.672A12.221,12.221,0,0,0,268.308,121.434Z" transform="translate(24.033 4.989)" fill="#ffcd4f"/>
      <path id="Path_251" data-name="Path 251" d="M284.653,100.8a40.354,40.354,0,0,0,3.491-2.778c1.066-.917,2.027-1.767,2.789-2.535s1.431-1.4,1.867-1.856.668-.718.668-.718a38.067,38.067,0,0,0-4.176-.613,42.846,42.846,0,0,0-4.347-.177,33.3,33.3,0,0,0-5.092.392,21.908,21.908,0,0,0-9.732,3.706,12.126,12.126,0,0,0-3.187,3.645,9.644,9.644,0,0,0-1.011,4.866,14.518,14.518,0,0,0,10.185.53,20.548,20.548,0,0,0,4.5-1.883A30.341,30.341,0,0,0,284.653,100.8Z" transform="translate(35.121 23.632)" fill="#ffcd4f"/>
      <path id="Path_252" data-name="Path 252" d="M297.209,272.817c10.323,8.566,22.91,14.426,35.265,19.414,10.107,4.087,23.07,10.759,36.281,16.983a264.516,264.516,0,0,1-33.006,8.3c-1.232.2,5.1,6.655,6.3,6.291,10.936-3.292,22.031-7.285,32.973-11.7,11.952,5.429,23.755,10.085,33.47,11.709,1.226.2,5.032-6.3,3.805-6.506a239.36,239.36,0,0,1-31.039-7.771c18.342-7.7,36-16.42,51.27-24.727a85.376,85.376,0,0,0,37.2-38.888c7.583-15.779,12.929-33.227,13.719-50.751,1.088-24.274-7.064-48.078-19.706-68.541A157.439,157.439,0,0,0,451.3,109.114a10,10,0,0,0,.193-4.446,12.108,12.108,0,0,0-1.961-4.717,23.17,23.17,0,0,0-8.224-7.075,37.866,37.866,0,0,0-9.036-3.457c-1.254-.309-2.286-.475-3-.58-.359-.044-.646-.077-.828-.088s-.265-.011-.265-.011.033.088.1.254c.094.16.2.414.364.729.326.646.8,1.552,1.392,2.657a91.47,91.47,0,0,0,4.717,7.9,40.374,40.374,0,0,0,3.126,4.054,20.749,20.749,0,0,0,1.767,1.784,15.381,15.381,0,0,0,1.895,1.563,13.861,13.861,0,0,0,4.336,2.06,12.7,12.7,0,0,0,3.822.342,149.492,149.492,0,0,1,21.523,34.679,113.642,113.642,0,0,1,10.312,49.332c-.425,18.524-6.606,37.33-14.912,53.784a78.95,78.95,0,0,1-27.924,31.04c-10.77,6.959-22.584,12.178-34.326,17.26-8.793,3.811-19.237,7.721-29.824,11.19-22.683-7.572-46.383-17.823-62.808-27.1a83.723,83.723,0,0,1-22.788-18.281c-6.423-7.495-11.057-16.392-14.774-25.478-7.053-17.237-11.527-35.077-10.433-53.8,1.281-21.838,9.859-42.721,21.81-60.831a156.9,156.9,0,0,1,10-13.625,12.878,12.878,0,0,0,3.7-.353,13.917,13.917,0,0,0,4.335-2.06,17.223,17.223,0,0,0,1.889-1.558,19.958,19.958,0,0,0,1.767-1.784,42.184,42.184,0,0,0,3.132-4.059c1.905-2.811,3.524-5.711,4.706-7.9.591-1.1,1.071-2.021,1.386-2.662.166-.315.287-.563.376-.735l.094-.243-.26.006c-.188.011-.464.05-.817.088a30.291,30.291,0,0,0-3,.585,37.945,37.945,0,0,0-9.041,3.452,23.233,23.233,0,0,0-8.224,7.081,11.973,11.973,0,0,0-1.955,4.711,9.886,9.886,0,0,0,.166,4.369,151.651,151.651,0,0,0-20.827,33.127,118.739,118.739,0,0,0-11.317,45.532c-.69,18.132,4.242,35.508,11.057,52.138C278.187,251.366,286.014,263.527,297.209,272.817Z" transform="translate(15.584 0)" fill="#ffcd4f"/>
      <path id="Path_253" data-name="Path 253" d="M309.18,135.877a49,49,0,0,0,10.715-3.225,47.374,47.374,0,0,0,4.452-2.159s-1.745-.7-4.435-1.6c-2.69-.917-6.28-2.055-10.074-2.982a41.863,41.863,0,0,0-11.361-1.431,17.623,17.623,0,0,0-5.225.989,18.4,18.4,0,0,0-4.954,2.806c1.1,3.789,4.424,6.186,8.323,7.285A28.542,28.542,0,0,0,309.18,135.877Z" transform="translate(136.371 169.879)" fill="#ffcd4f"/>
      <path id="Path_254" data-name="Path 254" d="M292.665,143.944a11.481,11.481,0,0,0,4.628-2.148,22.155,22.155,0,0,0,6.429-8.644,39.405,39.405,0,0,0,2.717-9.246c.21-1.27.326-2.331.4-3.071s.088-1.165.088-1.165-1.315.7-3.231,1.905a71.87,71.87,0,0,0-6.976,4.927,30.306,30.306,0,0,0-6.606,7.119,17.2,17.2,0,0,0-2.667,9.831A8.8,8.8,0,0,0,292.665,143.944Z" transform="translate(132.517 148.22)" fill="#ffcd4f"/>
      <path id="Path_255" data-name="Path 255" d="M313.089,121.494a44.8,44.8,0,0,0-11.333,1.453,13.237,13.237,0,0,0-8.152,6.235,11.974,11.974,0,0,0,9.494,4.811,26.494,26.494,0,0,0,11.836-2.662,44.968,44.968,0,0,0,9.787-6.147c1.237-1,2.22-1.922,2.9-2.557.674-.663,1.033-1.055,1.033-1.055s-1.878-.033-4.86-.088C320.876,121.467,317,121.378,313.089,121.494Z" transform="translate(160.37 156.205)" fill="#ffcd4f"/>
      <path id="Path_256" data-name="Path 256" d="M293.283,144.5a10.45,10.45,0,0,0,8.9-4.33,21.349,21.349,0,0,0,3.938-9.919,31.382,31.382,0,0,0-.061-9.444,29.83,29.83,0,0,0-.6-2.949c-.182-.7-.315-1.094-.315-1.094s-.226.232-.624.668c-.414.425-.989,1.044-1.657,1.834-1.386,1.563-3.264,3.728-5.125,6.269a32.6,32.6,0,0,0-4.7,8.655A14.534,14.534,0,0,0,293.283,144.5Z" transform="translate(154.085 135.067)" fill="#ffcd4f"/>
      <path id="Path_257" data-name="Path 257" d="M319.322,129.251c.392-.469.773-.95,1.149-1.43l.541-.735.442-.585c.552-.768,1.077-1.535,1.563-2.281.978-1.5,1.834-2.933,2.535-4.164.685-1.243,1.215-2.287,1.579-3.021.348-.751.514-1.2.514-1.2s-1.74.5-4.435,1.348a79.491,79.491,0,0,0-9.577,3.689c-.867.4-1.706.828-2.546,1.287-.9.508-1.784,1.027-2.623,1.547s-1.7,1.022-2.48,1.569c-.79.53-1.574,1.049-2.276,1.629a14.878,14.878,0,0,0-5.887,8.61,11.3,11.3,0,0,0,10.676,1.546A24.594,24.594,0,0,0,319.322,129.251Z" transform="translate(179.449 130.879)" fill="#ffcd4f"/>
      <path id="Path_258" data-name="Path 258" d="M305.816,125.766A48.637,48.637,0,0,0,302.2,116.8c-.6-1.143-1.127-2.049-1.552-2.69s-.668-1-.668-1-.138.359-.37.978c-.265.624-.646,1.519-1.049,2.607s-.856,2.4-1.254,3.844a32.249,32.249,0,0,0-.944,4.269,45.723,45.723,0,0,0-.563,8.666,16.125,16.125,0,0,0,3.485,9.56,9.556,9.556,0,0,0,6.964-6.793,15.021,15.021,0,0,0,.53-2.541,18.224,18.224,0,0,0,.055-2.634,22.136,22.136,0,0,0-.376-2.6C306.274,127.55,306.053,126.644,305.816,125.766Z" transform="translate(170.101 118.536)" fill="#ffcd4f"/>
      <path id="Path_259" data-name="Path 259" d="M324.315,111.476c.2-.817.282-1.292.282-1.292s-1.591.845-4.115,2.2a88.424,88.424,0,0,0-8.765,5.457,33.44,33.44,0,0,0-8.334,7.434c-.5.712-1.011,1.419-1.425,2.16a11.511,11.511,0,0,0-1,2.309,10.981,10.981,0,0,0-.32,5.214,12.245,12.245,0,0,0,10.383-1.756,20.768,20.768,0,0,0,2.281-1.69,18.685,18.685,0,0,0,2.077-2.055,40.3,40.3,0,0,0,3.485-4.849,44.387,44.387,0,0,0,4.424-9.792C323.746,113.443,324.094,112.288,324.315,111.476Z" transform="translate(191.411 105.315)" fill="#ffcd4f"/>
      <path id="Path_260" data-name="Path 260" d="M305.137,138.842a10.16,10.16,0,0,0,3.325-3.866,11.644,11.644,0,0,0,.851-2.32,10.164,10.164,0,0,0,.342-2.508,24.448,24.448,0,0,0-2.513-10.356,45.915,45.915,0,0,0-5.236-8.03,29.284,29.284,0,0,0-2.033-2.3c-.525-.53-.84-.828-.84-.828s-.077.359-.177.994c-.144.635-.348,1.541-.536,2.657a81.17,81.17,0,0,0-.823,8.489,30.083,30.083,0,0,0,.221,5c.066.431.133.851.188,1.265s.121.828.188,1.243a17.629,17.629,0,0,0,.619,2.447A14.062,14.062,0,0,0,305.137,138.842Z" transform="translate(177.888 98.313)" fill="#ffcd4f"/>
      <path id="Path_261" data-name="Path 261" d="M309.851,114.688c-.646.7-1.27,1.431-1.867,2.171s-1.193,1.48-1.795,2.226a25.032,25.032,0,0,0-2.883,4.645,16.783,16.783,0,0,0-.884,2.4,11.228,11.228,0,0,0-.552,2.452,10.918,10.918,0,0,0,.679,5.159,12.152,12.152,0,0,0,9.875-3.745,20.393,20.393,0,0,0,1.911-2.137,21.525,21.525,0,0,0,1.563-2.491,39.26,39.26,0,0,0,2.474-5.556,21.742,21.742,0,0,0,.84-2.889c.227-.95.425-1.889.6-2.806a46.856,46.856,0,0,0,.746-5.009c.171-2.949.121-4.9.121-4.9s-1.442,1.215-3.463,3.137C315.247,109.275,312.408,111.86,309.851,114.688Z" transform="translate(197.464 78.271)" fill="#ffcd4f"/>
      <path id="Path_262" data-name="Path 262" d="M312.934,127.354a11.325,11.325,0,0,0,.392-2.425,11.825,11.825,0,0,0-.254-2.513,19.764,19.764,0,0,0-1.69-4.943c-.193-.4-.4-.8-.613-1.182-.232-.387-.486-.768-.74-1.149-.514-.751-1.071-1.486-1.629-2.171a36.76,36.76,0,0,0-3.474-3.728,21.154,21.154,0,0,0-1.751-1.513c-.574-.453-1.138-.878-1.646-1.248a41.886,41.886,0,0,0-3.529-2.3,32.933,32.933,0,0,0,.2,3.573,14.127,14.127,0,0,1,.144,1.751c.055.63.11,1.292.2,1.983.155,1.381.47,2.878.762,4.418a28.152,28.152,0,0,0,1.2,4.689,22.328,22.328,0,0,0,.95,2.309,19.387,19.387,0,0,0,1.082,2.2,14.236,14.236,0,0,0,7.865,6.617A10.014,10.014,0,0,0,312.934,127.354Z" transform="translate(180.253 78.181)" fill="#ffcd4f"/>
      <path id="Path_263" data-name="Path 263" d="M302.288,121.475a13.152,13.152,0,0,0-.248,5.026,12.914,12.914,0,0,0,.663,2.43,11.293,11.293,0,0,0,1.171,2.4,11.816,11.816,0,0,0,8.737-5.976,23.932,23.932,0,0,0,2.3-5.374,35.415,35.415,0,0,0,.95-6.009c.072-1.016.138-2.038.149-3.027-.033-.983-.088-1.944-.149-2.866-.144-1.861-.342-3.584-.558-5.048-.591-2.883-1.149-4.744-1.149-4.744s-1.066,1.53-2.546,3.91c-.723,1.171-1.574,2.563-2.513,4.093-.917,1.53-1.856,3.17-2.728,4.86-.829,1.674-1.745,3.424-2.469,5.153A26.025,26.025,0,0,0,302.288,121.475Z" transform="translate(197.903 51.49)" fill="#ffcd4f"/>
      <path id="Path_264" data-name="Path 264" d="M316.317,113.52a18.234,18.234,0,0,0-2.916-4.308c-.591-.663-1.215-1.3-1.856-1.894a24.635,24.635,0,0,0-2.11-1.673,37.567,37.567,0,0,0-12.283-5.711,31.356,31.356,0,0,0,1.116,3.336c.337,1.011.718,2.2,1.259,3.457.249.624.547,1.281.862,1.944s.58,1.364.928,2.049a28.109,28.109,0,0,0,2.38,4.109,20.147,20.147,0,0,0,3,3.8,15,15,0,0,0,9.19,4.463,11.016,11.016,0,0,0,1.11-2.364,8.421,8.421,0,0,0,.343-2.43A12.505,12.505,0,0,0,316.317,113.52Z" transform="translate(176.423 58.949)" fill="#ffcd4f"/>
      <path id="Path_265" data-name="Path 265" d="M306.4,92.9s-.641,1.707-1.563,4.374-1.944,6.169-2.905,9.9c-.469,1.856-.784,3.706-1.071,5.567a23.978,23.978,0,0,0-.282,5.385c.088.851.149,1.7.315,2.518a11.854,11.854,0,0,0,.729,2.364,11.277,11.277,0,0,0,1.259,2.16,12.117,12.117,0,0,0,1.745,1.994,11.748,11.748,0,0,0,4.452-3.237,12.538,12.538,0,0,0,2.463-4.739,20.935,20.935,0,0,0,.63-2.789,19.312,19.312,0,0,0,.215-2.938,39.635,39.635,0,0,0-.536-6.02,45.787,45.787,0,0,0-3.291-10.251c-.586-1.326-1.121-2.4-1.5-3.154C306.657,93.3,306.4,92.9,306.4,92.9Z" transform="translate(191.7 27.134)" fill="#ffcd4f"/>
      <path id="Path_266" data-name="Path 266" d="M318.56,106.459a9.485,9.485,0,0,0-1.37-2.06,19.5,19.5,0,0,0-3.866-3.419,26.131,26.131,0,0,0-4.75-2.414c-.823-.326-1.64-.619-2.441-.873s-1.635-.458-2.425-.63a41.582,41.582,0,0,0-4.269-.751c-1.248-.155-2.276-.232-3.016-.254-.757-.039-1.165-.033-1.165-.033s.171.3.514.828c.315.536.745,1.3,1.353,2.2.293.447.619.928.989,1.43.193.249.387.514.585.773.171.276.364.547.563.828a37.184,37.184,0,0,0,2.762,3.424,27.1,27.1,0,0,0,3.292,3.386c.309.265.635.525.939.773.309.265.613.5.939.757a17.448,17.448,0,0,0,2.021,1.326,16.654,16.654,0,0,0,4.645,1.806,13.844,13.844,0,0,0,5.38.122,8.284,8.284,0,0,0,.171-4.965A11,11,0,0,0,318.56,106.459Z" transform="translate(167.856 41.277)" fill="#ffcd4f"/>
      <path id="Path_267" data-name="Path 267" d="M304.939,121.757a12.159,12.159,0,0,0,4.821-9.362,21.941,21.941,0,0,0-.519-5.683,32.953,32.953,0,0,0-1.85-5.634,44.373,44.373,0,0,0-2.623-5.065c-.906-1.557-1.905-2.9-2.728-4.048a33.22,33.22,0,0,0-2.149-2.673c-.536-.613-.85-.956-.85-.956s-.3,1.823-.591,4.551c-.16,1.386-.326,3.01-.458,4.733-.061.873-.116,1.762-.149,2.673-.055.922-.105,1.867-.11,2.817a36.8,36.8,0,0,0,1.127,10.908,12.859,12.859,0,0,0,2.182,4.446A10.646,10.646,0,0,0,304.939,121.757Z" transform="translate(179.014 6.5)" fill="#ffcd4f"/>
      <path id="Path_268" data-name="Path 268" d="M315.81,96.566a21.872,21.872,0,0,0-9.732-3.717,33.3,33.3,0,0,0-5.092-.392,42.8,42.8,0,0,0-4.347.182c-2.546.26-4.17.608-4.17.608s.227.271.663.724,1.1,1.077,1.856,1.856c.773.773,1.751,1.618,2.8,2.535a43.08,43.08,0,0,0,3.48,2.784,31.416,31.416,0,0,0,4.059,2.568,19.96,19.96,0,0,0,4.5,1.889,14.429,14.429,0,0,0,10.185-.53A9.581,9.581,0,0,0,319,100.206,12.06,12.06,0,0,0,315.81,96.566Z" transform="translate(155.241 25.134)" fill="#ffcd4f"/>
    </g>
    <text id="DEWA_-_U.A.E" data-name="DEWA - U.A.E" transform="translate(146 279.269)" fill="#fff" font-size="16" font-family="Roboto" letter-spacing="0.02em"><tspan x="-49.252" y="0">DEWA - U.A.E</tspan></text>
  </g>
</svg>
