<svg xmlns="http://www.w3.org/2000/svg" width="157.853" height="41.719" viewBox="0 0 157.853 41.719">
  <g id="Group_365" data-name="Group 365" transform="translate(-105.428 -140.866)">
    <g id="Group_360" data-name="Group 360" transform="translate(105.428 140.867)">
      <path id="Path_368" data-name="Path 368" d="M105.428,182.241l15.77-41.374h11.88l15.77,41.374H136.879l-3.154-8.275H120.549l-3.154,8.275Zm21.71-25.56-3.435,9.01h6.869Z" transform="translate(-105.428 -140.867)" fill="#fff"/>
      <path id="Path_369" data-name="Path 369" d="M196.521,140.867H174.287a23.589,23.589,0,0,0-6.842,5.368l5.487,14.395a12.406,12.406,0,0,1,22.67-6l9.216-6.216A23.668,23.668,0,0,0,196.521,140.867Z" transform="translate(-134.388 -140.867)" fill="#fff"/>
      <path id="Path_370" data-name="Path 370" d="M216.933,176.052a23.675,23.675,0,0,0-.363-4.137H193.4v8.275h11.7a12.408,12.408,0,0,1-20.323,4.789l4.482,11.761h15.131A23.434,23.434,0,0,0,216.933,176.052Z" transform="translate(-142.484 -155.366)" fill="#fff"/>
    </g>
    <g id="Group_364" data-name="Group 364" transform="translate(189.624 140.866)">
      <g id="Group_362" data-name="Group 362" transform="translate(0.022 26.628)">
        <g id="Group_361" data-name="Group 361">
          <path id="Path_371" data-name="Path 371" d="M263.427,191.464h6.5c3.59,0,4.983,2.281,4.983,4.621s-1.393,4.621-4.983,4.621h-3.33v5.166h-3.167Zm3.167,6.781h2.461c1.474,0,2.785-.324,2.785-2.16s-1.311-2.157-2.785-2.157h-2.461Z" transform="translate(-263.427 -191.122)" fill="#fff"/>
          <path id="Path_372" data-name="Path 372" d="M294.56,190.823c4.459,0,7.082,3.33,7.082,7.606,0,4.158-2.623,7.485-7.082,7.485s-7.082-3.327-7.082-7.485C287.478,194.153,290.1,190.823,294.56,190.823Zm0,12.43c2.843,0,3.915-2.424,3.915-4.824,0-2.522-1.071-4.942-3.915-4.942s-3.914,2.42-3.914,4.942C290.646,200.829,291.714,203.253,294.56,203.253Z" transform="translate(-274.658 -190.823)" fill="#fff"/>
          <path id="Path_373" data-name="Path 373" d="M330.635,205.871h-3.15l-2.441-9.807H325l-2.4,9.807H319.4l-3.813-14.407h3.168l2.278,9.807h.04l2.5-9.807h2.965L329,201.392h.04l2.36-9.928h3.109Z" transform="translate(-287.782 -191.122)" fill="#fff"/>
          <path id="Path_374" data-name="Path 374" d="M353.784,191.464h10.773v2.664h-7.606v3.087h6.98v2.464h-6.98v3.529h7.768v2.664H353.784Z" transform="translate(-305.621 -191.122)" fill="#fff"/>
          <path id="Path_375" data-name="Path 375" d="M378.292,191.464h7.768a3.958,3.958,0,0,1,4.215,3.975A3.546,3.546,0,0,1,388,199.053v.041c1.552.4,2,1.917,2.1,3.367.058.909.037,2.6.6,3.411h-3.167a15.844,15.844,0,0,1-.507-3.451c-.22-1.511-.8-2.177-2.4-2.177h-3.167v5.629h-3.167Zm3.167,6.517h3.472c1.41,0,2.177-.6,2.177-2.059,0-1.39-.767-1.995-2.177-1.995h-3.472Z" transform="translate(-317.066 -191.122)" fill="#fff"/>
        </g>
      </g>
      <g id="Group_363" data-name="Group 363">
        <path id="Path_376" data-name="Path 376" d="M266.333,161.76q0,2.818-2.947,2.82v2.412c2.05,0,3.544-.406,4.465-1.239a5.355,5.355,0,0,0,1.494-4.247V153.8h-3.011Z" transform="translate(-263.386 -146.904)" fill="#fff"/>
        <path id="Path_377" data-name="Path 377" d="M286.736,153.714a4.632,4.632,0,0,0-4.806,4.89,4.742,4.742,0,0,0,4.806,4.953,2.27,2.27,0,0,0,2.114-.981,2.239,2.239,0,0,1-2.371,1.986h-.191v2.392h.3c3.266,0,4.89-1.323,4.89-3.952v-4.354A4.7,4.7,0,0,0,286.736,153.714Zm.041,7.07a1.968,1.968,0,0,1-1.856-2.2c0-1.259.7-2.157,1.752-2.157,1.065,0,1.812.918,1.812,2.221S287.845,160.784,286.777,160.784Z" transform="translate(-272.046 -146.866)" fill="#fff"/>
        <path id="Path_378" data-name="Path 378" d="M354.681,147.758v4.719c0,1.387-.513,2.093-1.514,2.093H313.116c-2.2,0-2.563-.77-2.563-2.221V140.866h-2.991v13.041a3.269,3.269,0,0,0,3.61,3.524h42.634a3.547,3.547,0,0,0,2.924-1.3,4.267,4.267,0,0,0,.941-2.817v-5.553Z" transform="translate(-284.015 -140.866)" fill="#fff"/>
        <rect id="Rectangle_214" data-name="Rectangle 214" width="2.649" height="2.476" transform="translate(70.837 17.633)" fill="#fff"/>
      </g>
    </g>
  </g>
</svg>
