<svg id="Group_1" data-name="Group 1" xmlns="http://www.w3.org/2000/svg" width="40" height="40" viewBox="0 0 52 52">
  <path id="Path_48" data-name="Path 48" d="M0,0H52V52H0Z" fill="none"/>
  <path id="Path_49" data-name="Path 49" d="M5.167,32H39.833a2.167,2.167,0,1,0,0-4.333H5.167a2.167,2.167,0,0,0,0,4.333Zm0-10.833H39.833a2.167,2.167,0,1,0,0-4.333H5.167a2.167,2.167,0,0,0,0,4.333ZM3,8.167a2.173,2.173,0,0,0,2.167,2.167H39.833a2.167,2.167,0,1,0,0-4.333H5.167A2.173,2.173,0,0,0,3,8.167Z" transform="translate(3.5 7)" fill="#fff"/>
</svg>
